<?xml version="1.0" encoding="utf-8" ?>
<svg baseProfile="full" height="200mm" version="1.1" viewBox="0,0,200,200" width="200mm" xmlns="http://www.w3.org/2000/svg" xmlns:ev="http://www.w3.org/2001/xml-events" xmlns:xlink="http://www.w3.org/1999/xlink"><defs /><rect fill="#1a1a1a" height="200" width="200" x="0" y="0" /><text alignment-baseline="middle" fill="#e1ed5e" style="dominant-baseline: central; font-size:9.0px; font-family:Arial;" text-anchor="middle" x="100.0" y="100.0">2016</text><line stroke="#e1ed5e" stroke-width="0.3" x1="100.0" x2="100.0" y1="15.0" y2="10.0" /><path d="M 100.0 14.0 a86.0,86.0 0 0,1 42.35913384403234,11.155469271406648" fill="none" id="id13" stroke="none" /><text fill="#e1ed5e" style="font-size:6.75px; font-family:Arial;" text-anchor="middle"><textPath startOffset="22.145653131862478" xlink:href="#id13">January</textPath></text><line stroke="#e1ed5e" stroke-width="0.3" x1="143.13028292997686" x2="145.6673583964461" y1="26.7553504044142" y2="22.446841604673864" /><path d="M 143.63769802327073 25.89364864446614 a86.0,86.0 0 0,1 29.32050498858742,28.57503671076992" fill="none" id="id14" stroke="none" /><text fill="#e1ed5e" style="font-size:6.75px; font-family:Arial;" text-anchor="middle"><textPath startOffset="20.669276256404974" xlink:href="#id14">February</textPath></text><line stroke="#e1ed5e" stroke-width="0.3" x1="172.87174338648825" x2="177.1583165268699" y1="56.24261187166439" y2="53.66864786411523" /><path d="M 173.72905801456457 55.72781907015455 a86.0,86.0 0 0,1 12.242430191666344,42.057860355516425" fill="none" id="id15" stroke="none" /><text fill="#e1ed5e" style="font-size:6.75px; font-family:Arial;" text-anchor="middle"><textPath startOffset="22.145653131862474" xlink:href="#id15">March</textPath></text><line stroke="#e1ed5e" stroke-width="0.3" x1="184.99686870605535" x2="189.99668451229388" y1="99.2704041080226" y2="99.22748670261217" /><path d="M 185.99683186730306 99.26182062694052 a86.0,86.0 0 0,1 -10.086455211305974,41.156179273409016" fill="none" id="id16" stroke="none" /><text fill="#e1ed5e" style="font-size:6.75px; font-family:Arial;" text-anchor="middle"><textPath startOffset="21.40746469413373" xlink:href="#id16">April</textPath></text><path d="M 120.82617615685814 102.69636545807758 l 34.84394474301806 4.511246247060041 a56.13476665577999,56.13476665577999 0 0,0 -0.13193135935030892,0.9545895947256673 l -34.761368867112544 -5.108724149985794" fill="#8cff24" stroke="none" /><path d="M 120.592083275326 104.11899336999214 l 27.787941464707306 5.558366539630598 a49.338403791231514,49.338403791231514 0 0,0 -0.17325365903986983,0.8290814770363429 l -27.68843009484307 -6.03456446795235" fill="#e7ff1a" stroke="none" /><path d="M 118.8641267826498 109.22738970284198 l 42.56449399801774 20.820426948424984 a68.38381925955304,68.38381925955304 0 0,0 -0.5248623772937128,1.0500763459553315 l -42.200811707512294 -21.548035150544063" fill="#36ff6f" stroke="none" /><path d="M 118.70294669586154 109.54985784667822 l 40.21807685585268 20.535636607741516 a66.1575694304785,66.1575694304785 0 0,0 -0.5251396666804918,1.0070245531203403 l -39.85962912019724 -21.22300740396636" fill="#33ff51" stroke="none" /><path d="M 118.5362547648365 109.86951160357373 l 41.82450967629514 22.269195627751042 a68.3836119725961,68.3836119725961 0 0,0 -0.5605979433896477,1.031437074374666 l -41.43606638329016 -22.983887535600314" fill="#36ff6f" stroke="none" /><line stroke="#e1ed5e" stroke-width="0.3" x1="174.33088141563837" x2="178.70328620479359" y1="141.23008692659167" y2="143.65538615756765" /><path d="M 175.20536237346943 141.71514677278685 a86.0,86.0 0 0,1 -30.301960400862466,31.63118572779886" fill="none" id="id17" stroke="none" /><text fill="#e1ed5e" style="font-size:6.75px; font-family:Arial;" text-anchor="middle"><textPath startOffset="22.145653131862474" xlink:href="#id17">May</textPath></text><path d="M 117.81537515405839 111.11811171558189 l 36.94275166143408 23.055009310834325 a64.54653091396659,64.54653091396659 0 0,0 -0.594695799941672,0.9349605738551833 l -36.54153816986652 -23.685783559368183" fill="#30ff3a" stroke="none" /><path d="M 117.21940702142032 112.02048342749411 l 51.65822106426096 36.06145028248233 a84.0,84.0 0 0,0 -0.8355396058801574,1.175291093161984 l -51.03156635985084 -36.94291860235382" fill="#4dd2ff" stroke="none" /><path d="M 116.79662413953412 112.60449989151573 l 32.153099105461216 24.128284994649018 a61.199451723482696,61.199451723482696 0 0,0 -0.637779952223097,0.8348744304715401 l -31.73416717588382 -24.676680338361436" fill="#4dff2c" stroke="none" /><path d="M 116.1254893667686 113.45245675266167 l 47.894739234972796 39.95549490524342 a83.37265121436619,83.37265121436619 0 0,0 -0.9262520372922287,1.0911225709026346 l -47.20179263417345 -40.77178425859561" fill="#4cd9ff" stroke="none" /><path d="M 115.89218393027572 113.72728997021213 l 35.65908216929763 30.801465875123235 a68.12006410450968,68.12006410450968 0 0,0 -0.7719915037764384,0.8783846187718508 l -35.12507960156261 -31.409062771706378" fill="#36ff6c" stroke="none" /><path d="M 115.6541949942343 113.99807769240083 l 36.11196106251845 32.29153825950616 a69.4439591171696,69.4439591171696 0 0,0 -0.8022506735460878,0.8818140238599146 l -35.552312688130485 -32.906689858923755" fill="#38ff7e" stroke="none" /><path d="M 115.16444852881244 114.52719865689866 l 30.955635722093508 29.6547987769561 a63.86791893083578,63.86791893083578 0 0,0 -0.765238637429922,0.7852022558475799 l -30.442010283512776 -30.181823724871418" fill="#2fff31" stroke="none" /><path d="M 114.65682725009322 115.03919595460226 l 36.95122140181514 37.91520838319606 a73.94294844289598,73.94294844289598 0 0,0 -0.9166373312346906,0.8781178281475308 l -36.29491158471514 -38.543938341649174" fill="#3effb8" stroke="none" /><path d="M 111.27062007382361 117.71928675628689 l 25.08060957091766 39.4308840240052 a67.73148394137891,67.73148394137891 0 0,0 -0.986415114265574,0.615595986248133 l -24.40003032786237 -39.85561580709488" fill="#35ff67" stroke="none" /><path d="M 110.96478420261333 117.91015095944535 l 5.992469934135739 9.78824928581164 a32.476912476476976,32.476912476476976 0 0,0 -0.4779785626014386,0.2870123934025866 l -5.823558614976866 -9.88967567975015" fill="#ff1101" stroke="none" /><line stroke="#e1ed5e" stroke-width="0.3" x1="143.1302829299769" x2="145.6673583964461" y1="173.24464959558577" y2="177.55315839532614" /><path d="M 143.63769802327073 174.10635135553383 a86.0,86.0 0 0,1 -40.685524379131806,11.842963189579606" fill="none" id="id18" stroke="none" /><text fill="#e1ed5e" style="font-size:6.75px; font-family:Arial;" text-anchor="middle"><textPath startOffset="21.407464694133747" xlink:href="#id18">June</textPath></text><path d="M 109.06512990194946 118.94263497670748 l 12.21299666170299 25.520465810935114 a49.29225092964285,49.29225092964285 0 0,0 -0.7664036308193395,0.3587155972113757 l -11.773104317012145 -25.726357639717026" fill="#e8ff1a" stroke="none" /><path d="M 108.73861861582097 119.09545874513695 l 4.366745036806997 9.542125977430105 a31.4938377339096,31.4938377339096 0 0,0 -0.49353332813663636,0.22075118018501497 l -4.202298305814734 -9.61568090852497" fill="#ff0000" stroke="none" /><path d="M 101.08105385017728 120.97215588758144 l 2.0748345139519526 40.25123527417142 a61.30467565130611,61.30467565130611 0 0,0 -1.0514459487772396,0.04515361313396221 l -1.3835628045738837 -40.28092145573122" fill="#4cff2c" stroke="none" /><line stroke="#e1ed5e" stroke-width="0.3" x1="101.45913802915013" x2="101.54496967792366" y1="184.9874750549273" y2="189.98673829345242" /><path d="M 101.47630435890484 185.9873277026323 a86.0,86.0 0 0,1 -42.54439059252881,-10.42667462771756" fill="none" id="id19" stroke="none" /><text fill="#e1ed5e" style="font-size:6.75px; font-family:Arial;" text-anchor="middle"><textPath startOffset="22.145653131862474" xlink:href="#id19">July</textPath></text><path d="M 99.27912038922189 120.98762331915562 l -1.4496957347722543 42.20630956110081 a63.23119918367091,63.23119918367091 0 0,0 -1.0844880510607398,-0.04657258317743966 l 2.1740095464338327 -42.175204409497546" fill="#36ff2f" stroke="none" /><path d="M 97.84075906011543 120.88869738790638 l -4.4160230307095265 42.72101692896198 a63.94865011676634,63.94865011676634 0 0,0 -1.0909764513299636,-0.12224618693063781 l 5.14873538364029 -42.63891498152437" fill="#30ff32" stroke="none" /><path d="M 91.59046798132341 119.24265499422711 l -18.991184140035998 43.45554586473407 a68.42414513138598,68.42414513138598 0 0,0 -1.0722604325619036,-0.47960845288284415 l 19.734357975453534 -43.12313366094137" fill="#36ff70" stroke="none" /><path d="M 90.93487009805054 118.94263497670748 l -14.703124825576811 30.723875951074053 a55.06080493901281,55.06080493901281 0 0,0 -0.8490893974704632,-0.4153321727151154 l 15.228374472309344 -30.466950028261717" fill="#9aff23" stroke="none" /><path d="M 89.97174638481275 118.45085714620012 l -18.82482467299027 34.63555711411086 a60.420753932080736,60.420753932080736 0 0,0 -0.9070473253846923,-0.5031238613063854 l 19.416616186531062 -34.30730033737133" fill="#57ff2a" stroke="none" /><line stroke="#e1ed5e" stroke-width="0.3" x1="58.13341422392154" x2="55.670673884152215" y1="173.97424548756322" y2="178.32567169271397" /><path d="M 57.64086615596767 174.84453072859336 a86.0,86.0 0 0,1 -31.369924170532244,-30.572349798747886" fill="none" id="id20" stroke="none" /><text fill="#e1ed5e" style="font-size:6.75px; font-family:Arial;" text-anchor="middle"><textPath startOffset="22.145653131862474" xlink:href="#id20">August</textPath></text><path d="M 89.34428304082925 118.09573695890944 l -19.916645630509187 33.82281847523424 a60.25118880721866,60.25118880721866 0 0,0 -0.8867461351802411,-0.5324655758898382 l 20.494324522246856 -33.47593889880848" fill="#59ff2a" stroke="none" /><path d="M 88.72937992617639 117.7192867562869 l -18.31476293020219 28.793849327543658 a55.12500989431057,55.12500989431057 0 0,0 -0.7941003578573071,-0.5147262579147692 l 18.806348920316506 -28.475209227924992" fill="#99ff23" stroke="none" /><path d="M 88.1277618465304 117.32195027204791 l -18.8722451154573 27.535169627330525 a54.38183940563742,54.38183940563742 0 0,0 -0.7655018418717324,-0.5343797374955335 l 19.342142048502797 -27.20714507402986" fill="#a2ff22" stroke="none" /><path d="M 87.54013794807813 116.9041958592261 l -19.939248616879077 27.051420192371857 a54.6058472565412,54.6058472565412 0 0,0 -0.7497825164008932,-0.562650778402048 l 20.40068412219074 -26.705150386705792" fill="#a0ff22" stroke="none" /><path d="M 86.96720088162412 116.46651593811092 l -20.02518073235228 25.301161684284647 a53.26695904385299,53.26695904385299 0 0,0 -0.7121265579561689,-0.5736387462954226 l 20.45655806066371 -24.95367464419581" fill="#b1ff20" stroke="none" /><path d="M 86.13680546590413 115.77377054828092 l -20.441579248421093 23.25876477575695 a51.96495278639178,51.96495278639178 0 0,0 -0.6649904853893234,-0.5946385925699608 l 20.837834760633786 -22.904430653303613" fill="#c3ff1e" stroke="none" /><path d="M 85.34317274990678 115.03919595460226 l -25.02682621687812 25.679728441570713 a56.8579207891734,56.8579207891734 0 0,0 -0.6931470060304208,-0.6872227082441691 l 25.463965143038507 -25.246325723097883" fill="#83ff25" stroke="none" /><path d="M 84.58840730492382 114.26474011684316 l -29.72585617777303 27.513808696881906 a61.504767552848165,61.504767552848165 0 0,0 -0.7105332389288911,-0.7810004966859139 l 30.193787117543803 -26.999470624638317" fill="#4aff2c" stroke="none" /><path d="M 84.1078160697243 113.72728997021213 l -32.004573208619625 27.644788075390835 a63.290980291300464,63.290980291300464 0 0,0 -0.7031490372821245,-0.8283077978752286 l 32.47441680940886 -27.09131349506605" fill="#35ff2f" stroke="none" /><path d="M 83.4222238831116 112.89097897827486 l -31.896913108842703 24.80323256019026 a61.405611136424405,61.405611136424405 0 0,0 -0.6399284084074959,-0.8376868285832977 l 32.3179934946045 -24.252024818366095" fill="#4bff2c" stroke="none" /><path d="M 82.98947788004972 112.3143062007846 l -39.32731690558708 28.469944603446876 a69.55075283366685,69.55075283366685 0 0,0 -0.6918143882298838,-0.9731235753347531 l 39.810246392346926 -27.79064380140262" fill="#38ff7f" stroke="none" /><path d="M 82.576782715395 111.72311816256416 l -39.01070952627386 26.248146361927432 a68.01915189771587,68.01915189771587 0 0,0 -0.6435115794007076,-0.9743585499592751 l 39.455545544595296 -25.574607933629096" fill="#36ff6a" stroke="none" /><path d="M 82.18462484594161 111.1181117155819 l -36.37964279109669 22.703587728391835 a63.88276233346655,63.88276233346655 0 0,0 -0.5726086852495315,-0.9353132541417689 l 36.764019440801626 -22.075737358125508" fill="#2fff31" stroke="none" /><line stroke="#e1ed5e" stroke-width="0.3" x1="26.387840678322732" x2="22.057713659400548" y1="142.50000000000003" y2="145.00000000000006" /><path d="M 25.521815274538298 143.00000000000003 a86.0,86.0 0 0,1 -11.493303480769221,-40.785679425670985" fill="none" id="id21" stroke="none" /><text fill="#e1ed5e" style="font-size:6.75px; font-family:Arial;" text-anchor="middle"><textPath startOffset="21.40746469413373" xlink:href="#id21">September</textPath></text><path d="M 81.81346652052679 110.50000000000001 l -38.50076273266704 22.228425727711254 a65.45685145542247,65.45685145542247 0 0,0 -0.5534739452016602,-0.9779354283222029 l 38.876670042890076 -21.56423352928993" fill="#32ff47" stroke="none" /><path d="M 81.29705330413844 109.54985784667822 l -45.286837602251744 23.123781961203083 a71.84886382410116,71.84886382410116 0 0,0 -0.5514574336574626,-1.1032842740048188 l 45.67711494912094 -22.342965831034512" fill="#3bff9d" stroke="none" /><path d="M 80.9802524753101 108.90220220490707 l -39.64318076456803 18.55501029936102 a64.7706544198463,64.7706544198463 0 0,0 -0.46269544688006997,-1.011073054666213 l 39.95586067630315 -17.871748262480118" fill="#31ff3d" stroke="none" /><path d="M 80.68587082218212 108.24405325689762 l -46.20643240021186 19.72277838734139 a71.23964950585871,71.23964950585871 0 0,0 -0.47043324908293965,-1.128868542587965 l 46.538191493831285 -18.926677335312146" fill="#3aff95" stroke="none" /><path d="M 80.16572619554312 106.89939002012753 l -47.41891478252299 16.494760062367476 a71.20588201264121,71.20588201264121 0 0,0 -0.3916817829646747,-1.1579375940432088 l 47.69508198706003 -15.678320793850107" fill="#3aff95" stroke="none" /><path d="M 79.64726062577567 105.17358676015961 l -52.27791322591421 13.288841110837948 a74.94046263544013,74.94046263544013 0 0,0 -0.3062298315600191,-1.249522213951131 l 52.49833058399052 -12.38946307227872" fill="#40ffc4" stroke="none" /><path d="M 79.48165901384964 104.47187691870673 l -55.13104817820919 12.015555352094667 a77.42522524232645,77.42522524232645 0 0,0 -0.2718815880622939,-1.3010518211208895 l 55.32918747709585 -11.06738707968837" fill="#43ffe2" stroke="none" /><path d="M 79.34024301695615 103.76489593502545 l -38.28878091222814 6.9774913486077965 a59.919354173270946,59.919354173270946 0 0,0 -0.17572116011944489,-1.0135129554878286 l 38.40291688983982 -6.319185360199375" fill="#5dff2a" stroke="none" /><path d="M 79.22317932658666 103.0534771498775 l -42.81028225827314 6.291637238931203 a64.27013942870212,64.27013942870212 0 0,0 -0.15105160964607092,-1.0929342011238208 l 42.91197838447443 -5.555814729607298" fill="#30ff36" stroke="none" /><path d="M 79.0935383218832 101.97986365728391 l -38.90356079079802 3.684207654768221 a60.07762055507947,60.07762055507947 0 0,0 -0.08841817182367853,-1.0275531822445632 l 38.961072585319435 -3.0158334251479957" fill="#5bff2a" stroke="none" /><line stroke="#e1ed5e" stroke-width="0.3" x1="15.003131293944662" x2="10.003315487706104" y1="100.72959589197737" y2="100.7725132973878" /><path d="M 14.003168132696942 100.73817937305945 a86.0,86.0 0 0,1 10.791469493833604,-42.453326145846276" fill="none" id="id22" stroke="none" /><text fill="#e1ed5e" style="font-size:6.75px; font-family:Arial;" text-anchor="middle"><textPath startOffset="22.145653131862435" xlink:href="#id22">October</textPath></text><path d="M 79.00077361379809 100.18025310272382 l -30.789061716189238 0.2642870647818242 a51.790195988592224,51.790195988592224 0 0,0 0.0,-0.8890803350112721 l 30.789061716189238 0.26428706478181285" fill="#c5ff1e" stroke="none" /><path d="M 79.00696218219943 99.45929381324524 l -29.795630659332044 -0.7674297534061504 a50.80551215486392,50.80551215486392 0 0,0 0.029939719771512344,-0.8716622740479992 l 29.778066252563683 1.2787982920182883" fill="#d2ff1c" stroke="none" /><path d="M 79.03789590574601 98.7389718711861 l -32.77452994320249 -1.9716343350456478 a53.83378069837538,53.83378069837538 0 0,0 0.06341116618983117,-0.9219844395621284 l 32.735854815847595 2.533962198762101" fill="#aaff21" stroke="none" /><path d="M 79.17382384314186 97.30363454192245 l -40.73360021845662 -5.2737800633660035 a62.07357962137956,62.07357962137956 0 0,0 0.14588912054104688,-1.0555810016508904 l 40.637066581360365 5.972249373216961" fill="#43ff2d" stroke="none" /><path d="M 79.2786578344484 96.59031103205396 l -39.014877049024705 -6.419883171515081 a60.53954389072309,60.53954389072309 0 0,0 0.1775399456879558,-1.0240032273235433 l 38.89892228584452 7.088679431759217" fill="#55ff2b" stroke="none" /><path d="M 79.407916724674 95.88100663000787 l -36.18132647264226 -7.237278611674364 a57.898056683556156,57.898056683556156 0 0,0 0.2033112018412381,-0.9729177002938969 l 36.05175755997666 7.85731276325367" fill="#75ff27" stroke="none" /><path d="M 79.64726062577567 94.8264132398404 l -39.668812655729326 -10.083657053401163 a61.93036570916461,61.93036570916461 0 0,0 0.27075519189102953,-1.028101564644665 l 39.48986798303358 10.763139122418611" fill="#45ff2d" stroke="none" /><path d="M 80.05021161711548 93.44210830539832 l -35.99743901269075 -11.833073203462348 a58.89244300531293,58.89244300531293 0 0,0 0.32394932030152895,-0.9576986034495351 l 35.789004270816854 12.449273481386046" fill="#69ff28" stroke="none" /><path d="M 80.68587082218212 91.75594674310238 l -29.418762116500687 -12.557120199805698 a52.98663521190724,52.98663521190724 0 0,0 0.36426070621550405,-0.8334997812115529 l 29.198867528268206 13.060282050793118" fill="#b5ff20" stroke="none" /><path d="M 80.9802524753101 91.09779779509293 l -40.362217918467046 -18.89155599370004 a65.56455456033333,65.56455456033333 0 0,0 0.4858668872479772,-1.0152749262234226 l 40.031971773259166 19.581643421988552" fill="#32ff49" stroke="none" /><line stroke="#e1ed5e" stroke-width="0.3" x1="26.387840678322718" x2="22.05771365940052" y1="57.5" y2="55.0" /><path d="M 25.521815274538284 57.0 a86.0,86.0 0 0,1 29.574782752854787,-30.346332500585742" fill="none" id="id23" stroke="none" /><text fill="#e1ed5e" style="font-size:6.75px; font-family:Arial;" text-anchor="middle"><textPath startOffset="21.40746469413373" xlink:href="#id23">November</textPath></text><path d="M 82.576782715395 88.27688183743585 l -31.90403898478306 -21.466461260983134 a59.45356501823787,59.45356501823787 0 0,0 0.5770117492207114,-0.8418773863180581 l 31.530837498747037 22.010973382371226" fill="#62ff29" stroke="none" /><path d="M 83.8745106332314 86.54754324733833 l -29.854072105455426 -24.90532874723921 a59.87854191306294,59.87854191306294 0 0,0 0.6652375884564137,-0.7836482064855383 l 29.422139953491897 25.414143736174303" fill="#5dff2a" stroke="none" /><path d="M 84.34580500576568 86.00192230759919 l -28.858135363286767 -25.805122589944226 a59.71299947727936,59.71299947727936 0 0,0 0.6898338553722112,-0.7582482481588394 l 28.41090380707269 26.296708413660724" fill="#5fff29" stroke="none" /><path d="M 84.83555147118756 85.47280134310135 l -29.80212417334811 -28.54976080674486 a62.27051547250173,62.27051547250173 0 0,0 0.7460992186678316,-0.7655635261069162 l 29.30763815352947 29.057147024919505" fill="#41ff2d" stroke="none" /><path d="M 88.4268655584334 82.4767994020092 l -22.471590998737096 -34.02485288795896 a61.775765057957784,61.775765057957784 0 0,0 0.8899074527784098,-0.5768272593341429 l 21.88419791370166 34.405593988997005" fill="#47ff2c" stroke="none" /><line stroke="#e1ed5e" stroke-width="0.3" x1="56.869717070023135" x2="54.33264160355391" y1="26.7553504044142" y2="22.446841604673864" /><path d="M 56.362301976729285 25.89364864446614 a86.0,86.0 0 0,1 42.16139366436587,-11.88097634709845" fill="none" id="id24" stroke="none" /><text fill="#e1ed5e" style="font-size:6.75px; font-family:Arial;" text-anchor="middle"><textPath startOffset="22.145653131862474" xlink:href="#id24">December</textPath></text><path d="M 89.65649057296885 81.72400993836675 l -21.196336314254747 -37.4518952735701 a64.0340462044816,64.0340462044816 0 0,0 0.9612907248496897,-0.533211760609377 l 20.550301401248955 37.81023994961262" fill="#30ff33" stroke="none" /><path d="M 92.592206182469 80.34994680014964 l -14.917944175285209 -39.57161928333134 a63.29016565493503,63.29016565493503 0 0,0 1.0199085072017773,-0.3745245310493393 l 14.236446516429304 39.821874663389394" fill="#35ff2f" stroke="none" /><path d="M 93.27111125876988 80.10723608172694 l -15.055179097923876 -44.50796187299841 a67.98528586439423,67.98528586439423 0 0,0 1.1087340277653346,-0.3644628971825331 l 14.28892233251078 44.75984569158297" fill="#36ff6a" stroke="none" /><path d="M 99.63950707515114 79.00309439819443 l -0.7496027477450825 -43.66060204886558 a64.6670364869066,64.6670364869066 0 0,0 1.110095672593924,-0.009528836235454299 l 1.069533929238817e-14 43.667036486906596" fill="#31ff3c" stroke="none" /></svg>