<?xml version="1.0" encoding="utf-8" ?>
<svg baseProfile="full" height="200mm" version="1.1" viewBox="0,0,200,200" width="200mm" xmlns="http://www.w3.org/2000/svg" xmlns:ev="http://www.w3.org/2001/xml-events" xmlns:xlink="http://www.w3.org/1999/xlink"><defs /><rect fill="#1a1a1a" height="200" width="200" x="0" y="0" /><text alignment-baseline="middle" fill="#e1ed5e" style="dominant-baseline: central; font-size:9.0px; font-family:Arial;" text-anchor="middle" x="100.0" y="100.0">2018</text><line stroke="#e1ed5e" stroke-width="0.3" x1="100.0" x2="100.0" y1="15.0" y2="10.0" /><path d="M 100.0 14.0 a86.0,86.0 0 0,1 42.46469731375804,11.215312516191453" fill="none" id="id37" stroke="none" /><text fill="#e1ed5e" style="font-size:6.75px; font-family:Arial;" text-anchor="middle"><textPath startOffset="22.20632615414155" xlink:href="#id37">January</textPath></text><path d="M 100.0 79.0 l 0.0 -51.612481188521656 a72.61248118852166,72.61248118852166 0 0,0 1.2499045000568694,0.010758322640923199 l -0.8884240207843411 51.60483424248929" fill="#35ff68" stroke="none" /><path d="M 100.72285384407766 79.0124445844662 l 1.7063920147500375 -49.543897792903174 a70.57327487892684,70.57327487892684 0 0,0 1.2137231052777198,0.05226547004763075 l -2.558955952417089 49.50718459633135" fill="#31ff40" stroke="none" /><path d="M 103.2404852339499 79.25152402106235 l 7.452409561317955 -47.716971257336475 a69.2954216695858,69.2954216695858 0 0,0 1.1769358598967887,0.1942045012585542 l -8.272674627353618 47.581620493138296" fill="#37ff2e" stroke="none" /><path d="M 103.95276090670814 79.375362276772 l 8.922237973025846 -46.55427692623508 a68.40155093002642,68.40155093002642 0 0,0 1.1544670140069788,0.23157522234801095 l -9.72227139649995 46.39379774780986" fill="#45ff2d" stroke="none" /><path d="M 105.01212808612495 79.60689891045804 l 12.441473708717387 -50.621258412594166 a73.12774761410031,73.12774761410031 0 0,0 1.2198095228430574,0.3109566075646767 l -13.31099212024547 50.39959880886062" fill="#36ff72" stroke="none" /><path d="M 105.71112130821622 79.79150937346287 l 13.518245456058679 -47.83357275093753 a70.70707839261411,70.70707839261411 0 0,0 1.1683832323063614,0.34108310468800196 l -14.339618906088468 47.59379131733082" fill="#31ff43" stroke="none" /><path d="M 106.40334571778207 80.00007090966166 l 15.880853116041045 -49.60155990529782 a73.0818225557835,73.0818225557835 0 0,0 1.1947735745348584,0.39389806283030865 l -16.732309512818322 49.320848118208275" fill="#36ff71" stroke="none" /><path d="M 107.08798089147638 80.2323363322302 l 17.1565592288863 -47.847912928297205 a71.83080066424485,71.83080066424485 0 0,0 1.1602989113913718,0.42734788123076345 l -17.97764046605025 47.545501779260114" fill="#34ff59" stroke="none" /><path d="M 107.76421540070413 80.48803036053334 l 19.528328315329663 -49.07593743003232 a73.81858802947835,73.81858802947835 0 0,0 1.1765843875083797,0.47995831393925786 l -20.37019657242643 48.73251822990948" fill="#38ff7f" stroke="none" /><path d="M 108.09893153111575 80.62456947434976 l 20.341571541269044 -48.66403730741326 a73.74436519502227,73.74436519502227 0 0,0 1.1669738250356412,0.4996372900015289 l -21.176229124095 48.306680489448944" fill="#38ff7e" stroke="none" /><path d="M 108.76106565485865 80.91482961587045 l 24.35749198064808 -53.060541136675 a79.38414546179567,79.38414546179567 0 0,0 1.2369629558315085,0.58077069362531 l -25.267233147779187 52.63340546040969" fill="#43ffe2" stroke="none" /><path d="M 109.41281617654863 81.2277094730956 l 28.23844852964587 -56.31687158071319 a84.0,84.0 0 0,0 1.2869580496449777,0.6592298987499978 l -29.203667066879603 55.82244915665069" fill="#4dd2ff" stroke="none" /><line stroke="#e1ed5e" stroke-width="0.3" x1="143.23703022742887" x2="145.7803849466894" y1="26.818313649435467" y2="22.513508569990506" /><path d="M 143.74570117128098 25.957352633546478 a86.0,86.0 0 0,1 28.547481713284135,27.462654790039114" fill="none" id="id38" stroke="none" /><text fill="#e1ed5e" style="font-size:6.75px; font-family:Arial;" text-anchor="middle"><textPath startOffset="19.985693538727396" xlink:href="#id38">February</textPath></text><path d="M 111.60114157652 82.49532879139004 l 29.293577524434284 -44.20034353575792 a74.02625814498944,74.02625814498944 0 0,0 1.0560914014708729,0.7130776285635672 l -30.050073620311696 43.68955399489569" fill="#38ff83" stroke="none" /><path d="M 112.19680574252982 82.90503203632743 l 34.08824040094386 -47.77786822988582 a79.69184633511604,79.69184633511604 0 0,0 1.1098216051961354,0.8063325946741718 l -34.905607322493786 47.184016400394974" fill="#44ffe7" stroke="none" /><path d="M 113.06298171725822 83.55741782278167 l 32.43978351456183 -40.832469783270035 a73.15007327965415,73.15007327965415 0 0,0 0.9791541425556766,0.7917412210070319 l -33.137841055681996 40.26802246499888" fill="#36ff72" stroke="none" /><path d="M 113.89432698308785 84.25364557470407 l 33.361245045020446 -37.808091690044165 a71.42245995780738,71.42245995780738 0 0,0 0.9148503317864549,0.8213616607593164 l -34.007106364402894 37.22823102051555" fill="#33ff51" stroke="none" /><path d="M 115.4437574822437 85.77008943001952 l 37.59029402422665 -34.63577583881513 a72.11425606212478,72.11425606212478 0 0,0 0.833284896938961,0.9201339957131681 l -38.18092256178165 33.98358905583242" fill="#34ff5e" stroke="none" /><path d="M 116.15771136456269 86.58626213691792 l 42.20869305664651 -35.04062743978049 a75.85817478665962,75.85817478665962 0 0,0 0.825414634623003,1.0118607439228005 l -42.80560618334592 34.30888252624959" fill="#3cffa5" stroke="none" /><path d="M 116.38621287248628 86.86637796730983 l 41.34980695622973 -33.14205301212004 a73.99247317474095,73.99247317474095 0 0,0 0.7880054615376854,1.000686912945343 l -41.91416649836138 32.42537370522165" fill="#38ff82" stroke="none" /><path d="M 116.82858285166822 87.43820079747576 l 46.31274707325886 -34.5704349783618 a78.79260779775203,78.79260779775203 0 0,0 0.8019488639966661,1.0938573492431836 l -46.90095854976915 33.76811518544712" fill="#42ffd8" stroke="none" /><line stroke="#e1ed5e" stroke-width="0.3" x1="172.23445277983987" x2="176.4835382374775" y1="55.19839476539836" y2="52.563006222186495" /><path d="M 173.08426987136738 54.67131705675599 a86.0,86.0 0 0,1 12.851231095245387,41.99856678651699" fill="none" id="id39" stroke="none" /><text fill="#e1ed5e" style="font-size:6.75px; font-family:Arial;" text-anchor="middle"><textPath startOffset="22.20632615414155" xlink:href="#id39">March</textPath></text><path d="M 118.21658344932153 89.55222093294921 l 40.21446424775752 -23.064250161356792 a67.35906351771803,67.35906351771803 0 0,0 0.5681973043743522,1.0107596033229838 l -40.60551919342431 22.368607048099015" fill="#57ff2a" stroke="none" /><path d="M 118.56541770881063 90.18545643968196 l 40.19925156066639 -21.251194652469735 a66.47079392527579,66.47079392527579 0 0,0 0.5260389962256513,1.0161399058583283 l -40.559099990052154 20.55608202435106" fill="#66ff29" stroke="none" /><path d="M 118.89224826269711 90.83032412892265 l 43.896868877229004 -21.306096223293423 a69.79431148710754,69.79431148710754 0 0,0 0.5152874339301056,1.085326750536263 l -44.257114505000864 20.54732705711662" fill="#2fff30" stroke="none" /><path d="M 119.34039704204932 91.81776055985345 l 47.18939895885605 -19.964169322815994 a72.23872979346923,72.23872979346923 0 0,0 0.4746370513517466,1.149371267721461 l -47.526057697094 19.14892348464123" fill="#35ff61" stroke="none" /><path d="M 119.61058180528143 92.48833698450437 l 46.08948106868424 -17.65417537249111 a70.35494071785797,70.35494071785797 0 0,0 0.42345436585606755,1.1346471722291127 l -46.38654002304194 16.858205063232663" fill="#31ff3c" stroke="none" /><path d="M 119.97218684219823 93.5106431181261 l 35.65000360355961 -11.583388341570608 a58.48463208310103,58.48463208310103 0 0,0 0.3028515725176795,0.9601222465362471 l -35.8441106598455 10.96801592860794" fill="#fdff18" stroke="none" /><path d="M 120.53481517161879 95.60439243477599 l 48.350387905933005 -10.349707513051891 a70.44569198888732,70.44569198888732 0 0,0 0.2436102739042028,1.187930211984722 l -48.5213774757522 9.515901644903758" fill="#31ff3d" stroke="none" /><path d="M 120.67395015179393 96.31383870115 l 57.74561167911658 -10.296031352842807 a79.65632045921434,79.65632045921434 0 0,0 0.2290617576514537,1.35193546010152 l -57.914285298288256 9.300510104425449" fill="#44ffe7" stroke="none" /><path d="M 120.78858239683441 97.02765380044208 l 58.58660255321581 -8.376697464016502 a80.18242187619677,80.18242187619677 0 0,0 0.18359484043047722,1.3679948117654441 l -58.72211339270413 7.366984310186393" fill="#45fff0" stroke="none" /><path d="M 120.87857604477298 97.74499172005257 l 48.587755788852846 -5.247761694713702 a69.87032857881874,69.87032857881874 0 0,0 0.11885566506488228,1.1968603270248726 l -48.67088857959996 4.410625836984395" fill="#30ff32" stroke="none" /><path d="M 120.94382443527127 98.46500227214037 l 49.22380179470419 -3.6076708026752144 a70.35582996713558,70.35582996713558 0 0,0 0.0781264940108302,1.2085822827428014 l -49.27860887971943 2.7598294556793777" fill="#31ff3c" stroke="none" /><line stroke="#e1ed5e" stroke-width="0.3" x1="184.98032266829074" x2="189.97916517819016" y1="98.17113171792111" y2="98.06355123074" /><path d="M 185.9800911702706 98.14961562048488 a86.0,86.0 0 0,1 -9.607161424134198,41.387399972396054" fill="none" id="id40" stroke="none" /><text fill="#e1ed5e" style="font-size:6.75px; font-family:Arial;" text-anchor="middle"><textPath startOffset="21.466115282336823" xlink:href="#id40">April</textPath></text><path d="M 120.89721153311464 102.0752229133903 l 47.17365344098283 4.684636817401722 a68.40568954335447,68.40568954335447 0 0,0 -0.12644530630031342,1.1707264964708894 l -47.086025833181466 -5.495959635757401" fill="#45ff2d" stroke="none" /><path d="M 120.81339534386255 102.79330883721812 l 45.79520672403847 6.146049384595394 a67.20578840291878,67.20578840291878 0 0,0 -0.16374514003871354,1.145233128052904 l -45.68262753298316 -6.9334279846287075" fill="#5aff2a" stroke="none" /><path d="M 120.49622156327973 104.57218783832717 l 48.85296113119856 10.897858127690624 a71.05372236964669,71.05372236964669 0 0,0 -0.276566240715359,1.1914401265907637 l -48.65813432455265 -11.73716691162995" fill="#32ff4a" stroke="none" /><path d="M 120.32669344350535 105.2749913415812 l 41.92593134769761 10.880221392697601 a64.31469654662223,64.31469654662223 0 0,0 -0.28730882869207086,1.0691830330709085 l -41.73243444266376 -11.60029535894406" fill="#8dff24" stroke="none" /><path d="M 120.02730092923936 106.31721596034902 l 44.48853926440545 14.03302977703797 a67.64928778238506,67.64928778238506 0 0,0 -0.3598547456440162,1.1075190264429848 l -44.240392267745186 -14.79674770345875" fill="#52ff2b" stroke="none" /><path d="M 119.79798401119884 107.00284435728193 l 41.96389564857662 14.843260287813901 a65.51169412611051,65.51169412611051 0 0,0 -0.38519546881052585,1.0598924952955535 l -41.702175918760865 -15.563400580115585" fill="#77ff27" stroke="none" /><path d="M 119.54520255179757 107.68017299344265 l 47.51912111240067 18.672360630308493 a72.05608605057087,72.05608605057087 0 0,0 -0.46355185010840455,1.1504976763585257 l -47.19066664803487 -19.48755767450983" fill="#34ff5d" stroke="none" /><path d="M 119.26925614724726 108.34839909993367 l 48.87922421674503 21.176908352781673 a74.26950354013962,74.26950354013962 0 0,0 -0.5183265655423691,1.168689571081017 l -48.50745656647139 -22.01514626035538" fill="#39ff88" stroke="none" /><path d="M 118.97047184881838 109.00673069616215 l 41.92200280907376 19.9035739624262 a67.40696689077792,67.40696689077792 0 0,0 -0.5066652478661537,1.0438804798935237 l -41.57318430459289 -20.622243398285" fill="#56ff2a" stroke="none" /><line stroke="#e1ed5e" stroke-width="0.3" x1="174.80103733775053" x2="179.2010983576182" y1="140.37084112569926" y2="142.7455964860345" /><path d="M 175.68104954172406 140.8457921977663 a86.0,86.0 0 0,1 -30.038265399797805,32.042727171017184" fill="none" id="id41" stroke="none" /><text fill="#e1ed5e" style="font-size:6.75px; font-family:Arial;" text-anchor="middle"><textPath startOffset="22.206326154141568" xlink:href="#id41">May</textPath></text><path d="M 118.12598468904814 110.60418214915192 l 43.97719261722134 25.727824938698195 a71.95011723802496,71.95011723802496 0 0,0 -0.6345970337255572,1.0636211304772283 l -43.52781470779755 -26.481008163061528" fill="#34ff5b" stroke="none" /><path d="M 117.35343817320211 111.8261652097733 l 22.428369537370283 15.28467159576392 a48.14135121719609,48.14135121719609 0 0,0 -0.4725625937096038,0.6807616616223834 l -22.16194603649854 -15.66847451957332" fill="#ff1c02" stroke="none" /><path d="M 116.93607887273984 112.41649034213513 l 43.74259771729249 32.0693795876731 a75.23891556986686,75.23891556986686 0 0,0 -0.7747413237172905,1.037892609536976 l -43.18409512688011 -32.81758507671939" fill="#3bff99" stroke="none" /><path d="M 116.498646956653 112.99209946851258 l 40.43695066366004 31.842664832206584 a72.46943056408846,72.46943056408846 0 0,0 -0.780192389244043,0.9734099656458568 l -39.88284036236115 -32.53400263143069" fill="#35ff65" stroke="none" /><path d="M 115.56566222782051 114.09645910891815 l 34.49578638611453 31.239817176087204 a67.53907450295716,67.53907450295716 0 0,0 -0.7878066142925594,0.8550084861185794 l -33.95293336382625 -31.82897691700712" fill="#54ff2b" stroke="none" /><path d="M 115.07121518719521 114.62390073753431 l 24.882011372982298 24.143511982885485 a55.67021287550677,55.67021287550677 0 0,0 -0.6732367840423321,0.6819853078259102 l -24.462733963884432 -24.56823778469206" fill="#ffc712" stroke="none" /><path d="M 113.75828350139079 115.86535959552629 l 19.017504251442876 21.930028082942982 a50.027428402673145,50.027428402673145 0 0,0 -0.6554415557926365,0.5585815133473645 l -18.63719721907319 -22.254133986513295" fill="#ff4806" stroke="none" /><path d="M 112.92097659922987 116.55440617244103 l 25.362155665294924 32.49409385332321 a62.220202271934916,62.220202271934916 0 0,0 -0.849961359006761,0.6517141258747087 l -24.799065577794668 -32.92584732102529" fill="#b4ff20" stroke="none" /><path d="M 112.04921762599082 117.19931262002967 l 30.837756524466855 44.01847750019792 a74.74563785925076,74.74563785925076 0 0,0 -1.0601177924213814,0.7291586842975546 l -30.07548184742259 -44.54277697386057" fill="#3aff90" stroke="none" /><line stroke="#e1ed5e" stroke-width="0.3" x1="143.8653032363475" x2="146.44561519142675" y1="172.8068346515853" y2="177.08958963109032" /><path d="M 144.38136562736335 173.6633856474863 a86.0,86.0 0 0,1 -40.68145358897372,12.25698825130547" fill="none" id="id42" stroke="none" /><text fill="#e1ed5e" style="font-size:6.75px; font-family:Arial;" text-anchor="middle"><textPath startOffset="21.466115282336833" xlink:href="#id42">June</textPath></text><path d="M 110.8373102113329 117.98757091392108 l 22.409956199709608 37.19563881253552 a64.424897047034,64.424897047034 0 0,0 -0.9548141841297947,0.5641210499446101 l -21.766374144551435 -37.57587843477388" fill="#8bff24" stroke="none" /><path d="M 109.57404056367764 118.69057910512821 l 22.550051132900023 44.02253277713867 a70.46198740659997,70.46198740659997 0 0,0 -1.0842626613023487,0.5436718073006171 l -21.788934563914914 -44.40417242534859" fill="#31ff3e" stroke="none" /><path d="M 108.92500713936063 119.00905698771935 l 20.26048728722024 43.152095166763445 a68.67169665951718,68.67169665951718 0 0,0 -1.0743261970287137,0.49317046468339926 l -19.514693094424107 -43.494452701780915" fill="#41ff2d" stroke="none" /><path d="M 108.59647513512805 119.15986991738527 l 17.899206528729003 39.89384757404438 a64.72528637549652,64.72528637549652 0 0,0 -1.0204382926563402,0.44733015958343064 l -17.20984756141491 -40.196042286922264" fill="#85ff25" stroke="none" /><path d="M 107.2578585660854 119.70592522655815 l 15.32966075435714 41.62180150291869 a65.35507703963597,65.35507703963597 0 0,0 -1.059002587148803,0.3797206502442299 l -14.610938606578603 -41.87950969420288" fill="#7aff26" stroke="none" /><path d="M 104.48393922423573 120.51570834832081 l 9.419155347652138 43.09617823441726 a65.11350208128871,65.11350208128871 0 0,0 -1.0970339529807578,0.229894131108451 l -8.675929933242001 -43.25192834625225" fill="#7eff26" stroke="none" /><path d="M 103.06178313531737 120.77559828337769 l 7.065512658691005 47.942733425458066 a69.46057322643487,69.46057322643487 0 0,0 -1.1843735862933247,0.16414338702355843 l -6.239210481210849 -48.057251377974225" fill="#34ff2f" stroke="none" /><line stroke="#e1ed5e" stroke-width="0.3" x1="102.19456741930631" x2="102.32365962044197" y1="184.97166512339345" y2="189.96999836594603" /><path d="M 102.22038585953345 185.97133177190398 a86.0,86.0 0 0,1 -42.740103519485714,-10.115201625700543" fill="none" id="id43" stroke="none" /><text fill="#e1ed5e" style="font-size:6.75px; font-family:Arial;" text-anchor="middle"><textPath startOffset="22.20632615414155" xlink:href="#id43">July</textPath></text><path d="M 100.54218724476979 120.99299961872073 l 1.1879196223853739 45.99517310739276 a67.0105107796933,67.0105107796933 0 0,0 -1.153347609364908,0.0198559250410361 l -0.39601232312779816 -46.008806509712954" fill="#5dff2a" stroke="none" /><path d="M 99.45781275523022 120.99299961872073 l -1.1481991135360123 44.4572309385698 a65.47205576459956,65.47205576459956 0 0,0 -1.1263676800844136,-0.03879438034937813 l 1.913287145295069 -44.43087975979433" fill="#78ff26" stroke="none" /><path d="M 98.37488393609728 120.93702456842531 l -3.4339825479411434 44.24137978251587 a65.37445122139955,65.37445122139955 0 0,0 -1.12118952771026,-0.0967409501703351 l 4.195016393392945 -44.175714580066874" fill="#7aff26" stroke="none" /><path d="M 97.65516085044442 120.86867818915974 l -4.887388855830158 43.49694742896799 a64.77066375400878,64.77066375400878 0 0,0 -1.1068769053368153,-0.13402737845422283 l 5.635393184218363 -43.40637452178842" fill="#84ff25" stroke="none" /><path d="M 96.93821686468263 120.77559828337769 l -7.400341162561767 50.2146978928314 a71.75707767189353,71.75707767189353 0 0,0 -1.2204311750789698,-0.190606250112544 l 8.263608201249255 -50.07987333537175" fill="#34ff57" stroke="none" /><path d="M 96.22490169976321 120.6578951692458 l -7.8205171362847965 42.79502421447623 a64.50373071124511,64.50373071124511 0 0,0 -1.0905196849256364,-0.2090006930747179 l 8.556004435782128 -42.654066323053044" fill="#89ff24" stroke="none" /><path d="M 95.51606077576429 120.51570834832081 l -10.953974462423053 50.118552925821724 a72.3016462104464,72.3016462104464 0 0,0 -1.2135654026146805,-0.27620353460535607 l 11.815060014430596 -49.92257265763868" fill="#35ff62" stroke="none" /><path d="M 93.42475214034765 119.94407469862007 l -13.806343621815396 41.87747053581972 a65.09464437641029,65.09464437641029 0 0,0 -1.061136523511088,-0.35999512222881824 l 14.52514987826371 -41.63361242669278" fill="#7fff26" stroke="none" /><path d="M 93.08242187328487 119.8279376855182 l -16.12864410982505 46.229727298124494 a69.96244322825763,69.96244322825763 0 0,0 -1.1336595676728243,-0.40648998729200314 l 16.9220232381276 -45.94524976979253" fill="#30ff34" stroke="none" /><line stroke="#e1ed5e" stroke-width="0.3" x1="58.666819895761336" x2="56.23545636021788" y1="174.27360380694188" y2="178.64263932499728" /><path d="M 58.180547188652646 175.14741091055294 a86.0,86.0 0 0,1 -31.652253787137756,-30.449443065178592" fill="none" id="id44" stroke="none" /><text fill="#e1ed5e" style="font-size:6.75px; font-family:Arial;" text-anchor="middle"><textPath startOffset="22.20632615414155" xlink:href="#id44">August</textPath></text><path d="M 89.4739219176387 118.17145234162733 l -21.71971249419037 37.49532516991273 a64.33180495234166,64.33180495234166 0 0,0 -0.9534345055192459,-0.5633059115026962 l 22.361914870737998 -37.11590068611629" fill="#8cff24" stroke="none" /><path d="M 88.54995079064634 117.60387380957326 l -23.779396135417603 36.55962355985149 a64.61267883773206,64.61267883773206 0 0,0 -0.9271159483808433,-0.6144418964993421 l 24.405186782538408 -36.14488364226083" fill="#87ff25" stroke="none" /><path d="M 85.97065885151581 115.62618273729859 l -30.967514292485312 34.492285285012464 a67.3541226390703,67.3541226390703 0 0,0 -0.8560402703634566,-0.7819724904581048 l 31.556654112315623 -33.95412002796778" fill="#57ff2a" stroke="none" /><path d="M 85.44109423537348 115.13401014063109 l -32.34459889359907 33.622271863295545 a67.65437002936773,67.65437002936773 0 0,0 -0.8323099866225139,-0.8145904999411362 l 32.918558832597384 -33.06053126043184" fill="#52ff2b" stroke="none" /><path d="M 82.6465618267979 111.8261652097733 l -33.39146034626596 22.755889795968223 a61.40816927877954,61.40816927877954 0 0,0 -0.5877548251165179,-0.8786137159273053 l 33.778218276793204 -22.177739165835096" fill="#c3ff1e" stroke="none" /><path d="M 82.24976979558568 111.22182372390057 l -41.301568939609936 26.111150155425392 a69.8631943216213,69.8631943216213 0 0,0 -0.6338766144770348,-1.0220109332449288 l 41.744910193754926 -25.3963428908152" fill="#30ff32" stroke="none" /><line stroke="#e1ed5e" stroke-width="0.3" x1="26.63291911575756" x2="22.317208475507996" y1="142.92168965132927" y2="145.44649492493687" /><path d="M 25.769776987707644 143.4266507060508 a86.0,86.0 0 0,1 -11.730757126820373,-40.83630448921669" fill="none" id="id45" stroke="none" /><text fill="#e1ed5e" style="font-size:6.75px; font-family:Arial;" text-anchor="middle"><textPath startOffset="21.46611528233685" xlink:href="#id45">September</textPath></text><path d="M 81.69416730710424 110.29060199501025 l -41.65896671915192 23.418538409156408 a68.7901396663427,68.7901396663427 0 0,0 -0.5713630073778642,-1.0371898219950264 l 42.0559061359813 -22.69797806876356" fill="#3fff2d" stroke="none" /><path d="M 81.35079622478065 109.6543875284942 l -41.5059103992364 21.48693040984653 a67.73787304218098,67.73787304218098 0 0,0 -0.5271339675429619,-1.0400853271747377 l 41.86962303656563 -20.769290870969108" fill="#51ff2b" stroke="none" /><path d="M 81.02952815118164 109.00673069616217 l -42.130297266841424 20.002467237278193 a67.6375454260922,67.6375454260922 0 0,0 -0.4902929175476435,-1.0560473258920222 l 42.468364801228894 -19.274299844107347" fill="#52ff2b" stroke="none" /><path d="M 80.45479744820244 107.68017299344265 l -44.9855759126997 17.6768188666024 a69.33396285677327,69.33396285677327 0 0,0 -0.4269180007539024,-1.11454818469104 l 45.28318819304711 -16.8998471150782" fill="#36ff2e" stroke="none" /><path d="M 80.20201598880116 107.00284435728193 l -45.47933719964106 16.08672477466776 a69.2405724063735,69.2405724063735 0 0,0 -0.38777743741565773,-1.1270627477247883 l 45.749505467999946 -15.301489323853676" fill="#38ff2e" stroke="none" /><path d="M 79.67330655649465 105.27499134158121 l -45.046679841659135 11.69008854254433 a67.53881750635125,67.53881750635125 0 0,0 -0.2823401915689672,-1.1278087171189262 l 45.24123134752317 -10.912951986028013" fill="#54ff2b" stroke="none" /><path d="M 79.50377843672027 104.57218783832718 l -45.73725751002242 10.202823574097836 a67.86143759448987,67.86143759448987 0 0,0 -0.24451432900611672,-1.1422895421049781 l 45.90610587775298 -9.414020212576693" fill="#4fff2b" stroke="none" /><path d="M 79.1416061653843 102.43462659150553 l -39.3244786545988 4.590018876270867 a60.59144976810674,60.59144976810674 0 0,0 -0.11200098231964416,-1.0369899956662396 l 39.397661938419496 -3.9124325587198454" fill="#d3ff1c" stroke="none" /><path d="M 79.07016306316243 101.71520430193888 l -39.82110428943393 3.263347420780909 a60.95459652178572,60.95459652178572 0 0,0 -0.07669667644440542,-1.0464652142907072 l 39.87137752454267 -2.5774090699934407" fill="#ccff1d" stroke="none" /><path d="M 79.0235259727143 100.99374915477108 l -38.315523504425734 1.8151772813489093 a59.35849592959722,59.35849592959722 0 0,0 -0.039566301913096964,-1.0210304434665507 l 38.341091939190036 -1.1553695908683617" fill="#ebff1a" stroke="none" /><line stroke="#e1ed5e" stroke-width="0.3" x1="15.007084014347285" x2="10.007500721073583" y1="101.09737516637583" y2="101.16192664675087" /><path d="M 14.007167355692545 101.11028546245083 a86.0,86.0 0 0,1 10.666146001902526,-42.60595125391555" fill="none" id="id46" stroke="none" /><text fill="#e1ed5e" style="font-size:6.75px; font-family:Arial;" text-anchor="middle"><textPath startOffset="22.20632615414155" xlink:href="#id46">October</textPath></text><path d="M 79.16333360222342 97.38593545837743 l -55.122383510266864 -6.915380101266326 a76.55447457944257,76.55447457944257 0 0,0 0.17528787751452143,-1.3060982892710251 l 54.99517963369451 7.8631967326020105" fill="#3effb1" stroke="none" /><path d="M 79.26566170972629 96.67025291283419 l -54.08172956426006 -8.685036337521183 a75.77465955025028,75.77465955025028 0 0,0 0.2178995540084985,-1.2860555023447107 l 53.924218148731335 9.614677628181722" fill="#3cffa3" stroke="none" /><path d="M 79.3925641242962 95.95851677861259 l -43.93767260658885 -8.616955922968629 a65.77466921666951,65.77466921666951 0 0,0 0.2274572756891844,-1.1091624560677305 l 43.78283603498467 9.371994035199762" fill="#73ff27" stroke="none" /><path d="M 79.54389044137918 95.25157060432595 l -47.16990667590622 -10.949441329946403 a69.42406799569446,69.42406799569446 0 0,0 0.2802325637379909,-1.1617448939032977 l 46.97444131190741 11.759771455509098" fill="#35ff2f" stroke="none" /><path d="M 79.71946130924805 94.55025226153421 l -51.36296394643662 -13.80215786554209 a74.18508839052816,74.18508839052816 0 0,0 0.3420046658527148,-1.2303727495851233 l 51.117772510017545 14.684241918546157" fill="#39ff86" stroke="none" /><path d="M 79.91906864156998 93.8553929516997 l -52.01645024399275 -15.916624637164677 a75.3971509899753,75.3971509899753 0 0,0 0.39042984331716923,-1.2377692978912611 l 51.73476491690738 16.809644101482352" fill="#3bff9c" stroke="none" /><path d="M 80.14247586403 93.16781622104843 l -43.057836229253105 -14.814487860013685 a66.53511075312845,66.53511075312845 0 0,0 0.3819334580603689,-1.0797773176492613 l 42.79644969038293 15.553462804089557" fill="#65ff29" stroke="none" /><path d="M 80.38941819471856 92.48833698450439 l -51.22991698669535 -19.623174699091877 a75.859578741864,75.859578741864 0 0,0 0.47757741013962707,-1.2153824169470635 l 50.88454602667403 20.5021061209347" fill="#3cffa5" stroke="none" /><path d="M 80.65960295795067 91.81776055985345 l -46.59247792809358 -19.711633100837776 a71.5905868614106,71.5905868614106 0 0,0 0.4899158295142567,-1.1307932810227308 l 46.246271388736645 20.510725526447104" fill="#33ff54" stroke="none" /><path d="M 81.26839172434947 90.50648371742162 l -48.90781709064235 -24.78736214545643 a75.83053797567314,75.83053797567314 0 0,0 0.600110480473839,-1.1592224369459332 l 48.473897177008396 25.6255573046627" fill="#3cffa4" stroke="none" /><path d="M 81.6062741919709 89.86733742301443 l -45.903948931470964 -25.287384966385513 a73.4082471176176,73.4082471176176 0 0,0 0.6192242877620515,-1.1015309130258828 l 45.46186700241648 26.07379938934618" fill="#37ff77" stroke="none" /><line stroke="#e1ed5e" stroke-width="0.3" x1="26.266209847984243" x2="21.928928074336255" y1="57.71137044288968" y2="55.22380399835378" /><path d="M 25.398753493254645 57.2138571539825 a86.0,86.0 0 0,1 29.58750427330803,-30.4925239686951" fill="none" id="id47" stroke="none" /><text fill="#e1ed5e" style="font-size:6.75px; font-family:Arial;" text-anchor="middle"><textPath startOffset="21.46611528233685" xlink:href="#id47">November</textPath></text><path d="M 81.78341655067845 89.55222093294921 l -46.95456170347692 -26.929906380792907 a75.12901922669477,75.12901922669477 0 0,0 0.6530512203031466,-1.116276225161388 l 46.48405080870345 27.734162018308183" fill="#3bff97" stroke="none" /><path d="M 82.7489923806493 88.02491185347247 l -44.70231130989225 -31.03088991097565 a75.41702642660302,75.41702642660302 0 0,0 0.7494562698642603,-1.060052744043361 l 44.161542420224116 31.795769155350797" fill="#3bff9d" stroke="none" /><path d="M 82.95767976084542 87.72973835380427 l -43.60327434976632 -31.393822988566775 a74.72911367088102,74.72911367088102 0 0,0 0.7605907392945634,-1.0374449136287205 l 43.05642099795813 32.139730345867" fill="#3aff90" stroke="none" /><path d="M 83.84228863543731 86.58626213691792 l -40.82279070684922 -33.89008511329841 a74.05693272402604,74.05693272402604 0 0,0 0.8226998286768262,-0.97381710426945 l 40.233380264685266 34.58776116719698" fill="#38ff84" stroke="none" /><path d="M 84.07557802195018 86.31012108654704 l -41.991903189495424 -36.09952504411293 a76.37594822561951,76.37594822561951 0 0,0 0.8656236716502289,-0.989557494878119 l 41.36428765426735 36.81699809519399" fill="#3dffae" stroke="none" /><path d="M 84.80347519578584 85.50635884689758 l -38.69928849766094 -36.909333389824724 a74.4783490910707,74.4783490910707 0 0,0 0.8928029546008114,-0.9201119243114675 l 38.05822127935701 37.57000950968631" fill="#39ff8b" stroke="none" /><path d="M 85.31137513191541 84.99185889309783 l -34.679985441082025 -35.434366372578175 a70.58120319657199,70.58120319657199 0 0,0 0.8755993389858616,-0.8423258703679506 l 34.064902858483734 36.02607532970844" fill="#31ff40" stroke="none" /><line stroke="#e1ed5e" stroke-width="0.3" x1="56.76296977257108" x2="54.21961505331056" y1="26.818313649435495" y2="22.513508569990535" /><path d="M 56.25429882871898 25.957352633546506 a86.0,86.0 0 0,1 42.26535254187918,-11.944610805530505" fill="none" id="id48" stroke="none" /><text fill="#e1ed5e" style="font-size:6.75px; font-family:Arial;" text-anchor="middle"><textPath startOffset="22.20632615414155" xlink:href="#id48">December</textPath></text><path d="M 89.63071344664047 81.73862282372117 l -26.046923456661887 -45.871303785086475 a73.75053300679427,73.75053300679427 0 0,0 1.1093341330925386,-0.6173432440154198 l 25.253465234497302 46.31286242666208" fill="#38ff7e" stroke="none" /><path d="M 89.94658935756843 81.56283822128135 l -12.447315436840105 -22.82739426271526 a47.00049211860505,47.00049211860505 0 0,0 0.713635225124982,-0.3811992225088238 l 12.05253516518682 23.038272211725833" fill="#ff0000" stroke="none" /><path d="M 90.58718382345135 81.22770947309562 l -25.268824441479605 -50.39445207382422 a77.3747664161483,77.3747664161483 0 0,0 1.195730233828426,-0.5867396327402141 l 24.397622940640755 50.82194686669926" fill="#3fffc0" stroke="none" /><path d="M 91.56875222667455 80.76684994638697 l -20.646482107952526 -47.09823493953194 a72.42490600723886,72.42490600723886 0 0,0 1.1460939336531308,-0.49069761018860897 l 19.832704416509088 47.44665207768334" fill="#35ff64" stroke="none" /><path d="M 91.90106846888425 80.62456947434976 l -18.7980467580455 -44.97139500181183 a69.74210633863345,69.74210633863345 0 0,0 1.111609902877289,-0.45345359024608334 l 18.021152985579832 45.28830947824149" fill="#2fff2f" stroke="none" /><path d="M 92.91201910852362 80.23233633223022 l -16.631964493708495 -46.384871133228565 a70.27655135017264,70.27655135017264 0 0,0 1.142221508008784,-0.398498656037045 l 15.831060981636423 46.66429064243782" fill="#30ff3a" stroke="none" /><path d="M 93.59665428221793 80.00007090966166 l -16.928533202772655 -52.87383792486555 a76.51772665826948,76.51772665826948 0 0,0 1.257858975683659,-0.39082290668864805 l 16.015888854378268 53.15740096643672" fill="#3dffb1" stroke="none" /><path d="M 95.33964822691252 79.52364482259891 l -12.453946325269936 -54.71935182857907 a77.1186978075269,77.1186978075269 0 0,0 1.2969061540254303,-0.28345345310308756 l 11.510197447090984 54.92561877977803" fill="#3fffbb" stroke="none" /><path d="M 96.75951476605007 79.25152402106235 l -7.930981906139347 -50.78121814748701 a72.39681498437596,72.39681498437596 0 0,0 1.2329212741228959,-0.1817005466121156 l 7.055691651587802 50.91021317826009" fill="#35ff64" stroke="none" /><path d="M 97.47563105711357 79.15227682838746 l -5.677970230278887 -46.89201706077123 a68.23452773092575,68.23452773092575 0 0,0 1.167243539582763,-0.13115341201156308 l 4.869959987186406 46.98280642625339" fill="#48ff2c" stroke="none" /><path d="M 97.83486435360386 79.11191278185805 l -5.69085091183891 -54.902329278904 a76.19648126783062,76.19648126783062 0 0,0 1.3057713815443672,-0.12399872653273128 l 4.744954403204306 54.99215354995191" fill="#3dffab" stroke="none" /><path d="M 98.55514903715128 79.0497635885617 l -3.3496885610091836 -48.57024638684545 a69.68561643375412,69.68561643375412 0 0,0 1.1973911933001784,-0.0722299067133723 l 2.513135318869382 48.620709562939126" fill="#30ff2f" stroke="none" /></svg>