<?xml version="1.0" encoding="utf-8" ?>
<svg baseProfile="full" height="200mm" version="1.1" viewBox="0,0,200,200" width="200mm" xmlns="http://www.w3.org/2000/svg" xmlns:ev="http://www.w3.org/2001/xml-events" xmlns:xlink="http://www.w3.org/1999/xlink"><defs /><rect fill="#1a1a1a" height="200" width="200" x="0" y="0" /><text alignment-baseline="middle" fill="#e1ed5e" style="dominant-baseline: central; font-size:9.0px; font-family:Arial;" text-anchor="middle" x="100.0" y="100.0">2019</text><line stroke="#e1ed5e" stroke-width="0.3" x1="100.0" x2="100.0" y1="15.0" y2="10.0" /><path d="M 100.0 14.0 a86.0,86.0 0 0,1 42.46469731375804,11.215312516191453" fill="none" id="id49" stroke="none" /><text fill="#e1ed5e" style="font-size:6.75px; font-family:Arial;" text-anchor="middle"><textPath startOffset="22.20632615414155" xlink:href="#id49">January</textPath></text><path d="M 100.0 79.0 l 0.0 -54.04914828121669 a75.04914828121669,75.04914828121669 0 0,0 1.2918477185566313,0.011119341164497316 l -0.9303672392841029 54.04114031666075" fill="#3effb4" stroke="none" /><path d="M 101.08401301168833 79.027996857942 l 2.671109445845266 -51.676977201408285 a72.74596407785398,72.74596407785398 0 0,0 1.2499764110971439,0.0754019906548916 l -3.5602479057820218 51.623341941373084" fill="#3aff91" stroke="none" /><path d="M 101.80526077348638 79.07773832637324 l 4.988974811986139 -57.82025402231708 a79.0350897723085,79.0350897723085 0 0,0 1.3544163279628885,0.1286181503410786 l -5.9835162670392705 57.72581032746082" fill="#45ffec" stroke="none" /><path d="M 102.16513564639614 79.11191278185805 l 6.200531756961265 -59.81946135977543 a81.13995802661282,81.13995802661282 0 0,0 1.388008314237269,0.15595890672284266 l -7.2293067747082596 59.70386649958199" fill="#48f6ff" stroke="none" /><path d="M 102.88285421437855 79.19881850522331 l 8.271250311924378 -59.681054306853106 a81.251488155066,81.251488155066 0 0,0 1.3837167881231072,0.20392388551912735 l -9.297336080476141 59.529835937173004" fill="#48f5ff" stroke="none" /><path d="M 105.01212808612495 79.60689891045804 l 4.228592797752187 -17.205091112853015 a38.717114811694806,38.717114811694806 0 0,0 0.6458219606808595,0.16463439760334306 l -4.5241236471180715 17.129753719080803" fill="#ff0000" stroke="none" /><path d="M 107.08798089147638 80.2323363322302 l 18.374629074944533 -51.24498684954417 a75.43965164153562,75.43965164153562 0 0,0 1.2185934844937498,0.44881826447250917 l -19.254004885210858 50.92110531726534" fill="#3effb9" stroke="none" /><path d="M 107.76421540070413 80.48803036053334 l 21.377874751045542 -53.723965857630965 a78.82108643343956,78.82108643343956 0 0,0 1.2563185259923875,0.5124838710318732 l -22.29947714662632 53.348021100415515" fill="#44ffe9" stroke="none" /><path d="M 108.43124777332544 80.76684994638697 l 13.27500345403637 -30.282603507571928 a54.064509551806225,54.064509551806225 0 0,0 0.8491162860242503,0.38097372639343446 l -13.7943018585274 30.04960945066196" fill="#e8ff1a" stroke="none" /><path d="M 109.08828744355905 81.06846463323043 l 24.976446149951606 -52.02767590269515 a78.71223373009676,78.71223373009676 0 0,0 1.216399118247955,0.5968817645609017 l -25.868316535209992 51.59003897799941" fill="#44ffe7" stroke="none" /><path d="M 110.05341064243156 81.56283822128135 l 22.992235059510314 -42.16594472500226 a69.02717738514019,69.02717738514019 0 0,0 1.0382867873960655,0.5778054730566575 l -23.714645935978414 41.763923854385425" fill="#34ff58" stroke="none" /><line stroke="#e1ed5e" stroke-width="0.3" x1="143.23703022742887" x2="145.7803849466894" y1="26.818313649435467" y2="22.513508569990506" /><path d="M 143.74570117128098 25.957352633546478 a86.0,86.0 0 0,1 28.547481713284135,27.462654790039114" fill="none" id="id50" stroke="none" /><text fill="#e1ed5e" style="font-size:6.75px; font-family:Arial;" text-anchor="middle"><textPath startOffset="19.985693538727396" xlink:href="#id50">February</textPath></text><path d="M 111.2981086023043 82.29822771554956 l 26.717160260390816 -41.860200115278474 a70.6596718280595,70.6596718280595 0 0,0 1.0196290719601706,0.6631951112307246 l -27.43375635813527 41.394106079888225" fill="#36ff71" stroke="none" /><path d="M 111.90073688211348 82.69761687909136 l 32.1999848668974 -46.815292210340544 a77.81998424998017,77.81998424998017 0 0,0 1.0971463835480886,0.7686211556817949 l -33.00106239002914 46.254086211894816" fill="#42ffdb" stroke="none" /><path d="M 114.94478906791727 85.2469230424477 l 35.573554443813016 -35.11721603952954 a70.98696468214408,70.98696468214408 0 0,0 0.8509502772257587,0.8769790613222701 l -36.172768984741886 34.49967278265716" fill="#37ff77" stroke="none" /><path d="M 115.4437574822437 85.77008943001952 l 44.861724240368986 -41.33568690712378 a82.00174844955409,82.00174844955409 0 0,0 0.947535511518497,1.0462923779086566 l -45.56660339250352 40.55734174194558" fill="#4aebff" stroke="none" /><path d="M 116.15771136456269 86.58626213691792 l 47.04723519840849 -39.057467106282814 a82.14677486648606,82.14677486648606 0 0,0 0.8938410441929439,1.0957434312258065 l -47.71257473467784 38.24183950544891" fill="#4ae9ff" stroke="none" /><path d="M 116.82858285166822 87.43820079747576 l 46.90415289395687 -35.01189349167185 a79.5306094669435,79.5306094669435 0 0,0 0.8094602234601693,1.1041028351099664 l -47.499875729930665 34.199328212890386" fill="#45fff2" stroke="none" /><path d="M 117.04232023915458 87.72973835380427 l 39.34842151801135 -28.330381110990604 a69.48617091349936,69.48617091349936 0 0,0 0.6905184270379912,0.9766893450990842 l -39.830252564853225 27.648865265559728" fill="#34ff5f" stroke="none" /><path d="M 117.45458315368197 88.32363383020206 l 40.83729096374262 -27.31839302473711 a70.13225957262071,70.13225957262071 0 0,0 0.6625941080552061,1.0091762845368968 l -41.301481707155745 26.61139867622254" fill="#35ff69" stroke="none" /><path d="M 117.65298651832404 88.62581576622439 l 40.77304807962261 -26.270917963304914 a69.5036347126472,69.5036347126472 0 0,0 0.6393421041469093,1.0112856704219955 l -41.21921778001548 25.565184645168713" fill="#34ff5f" stroke="none" /><line stroke="#e1ed5e" stroke-width="0.3" x1="172.23445277983987" x2="176.4835382374775" y1="55.19839476539836" y2="52.563006222186495" /><path d="M 173.08426987136738 54.67131705675599 a86.0,86.0 0 0,1 12.851231095245387,41.99856678651699" fill="none" id="id51" stroke="none" /><text fill="#e1ed5e" style="font-size:6.75px; font-family:Arial;" text-anchor="middle"><textPath startOffset="22.20632615414155" xlink:href="#id51">March</textPath></text><path d="M 118.03404312379186 89.2402003453031 l 42.97691454978982 -25.641670431779303 a71.04508414172086,71.04508414172086 0 0,0 0.6175520374529864,1.0555966144412674 l -43.411926261713134 24.89809440498414" fill="#37ff77" stroke="none" /><path d="M 118.3937258080291 89.86733742301442 l 45.5569439455203 -25.096228238712985 a73.01207372778799,73.01207372778799 0 0,0 0.5969324627774051,1.1060251951972353 l -45.98218450751617 24.30832206018329" fill="#3aff95" stroke="none" /><path d="M 118.56541770881063 90.18545643968196 l 46.80281113013708 -24.742143472703805 a73.94031349838366,73.94031349838366 0 0,0 0.5851515529816705,1.1303265503620374 l -47.22177211627887 23.932844200081423" fill="#3cffa3" stroke="none" /><path d="M 118.73160827565052 90.50648371742162 l 44.61375421659839 -22.6110537786974 a71.01646547170438,71.01646547170438 0 0,0 0.5432420996890157,1.095142923890803 l -44.99635632924081 21.839751266307648" fill="#37ff77" stroke="none" /><path d="M 119.196687751892 91.48605970444005 l 43.77890138440294 -19.41642003086065 a68.8914352806437,68.8914352806437 0 0,0 0.47144472676667654,1.0881594292022005 l -44.1066368210123 18.659961457071844" fill="#33ff55" stroke="none" /><path d="M 119.47837535516314 92.15188598940014 l 48.04017842065354 -19.35607002433649 a72.79301294069735,72.79301294069735 0 0,0 0.45827170639547804,1.1662515066919843 l -48.36624367693072 18.52626951274872" fill="#3aff92" stroke="none" /><path d="M 119.61058180528143 92.48833698450437 l 45.76251763416325 -17.528934869027346 a70.0048117827189,70.0048117827189 0 0,0 0.4213469996258585,1.1290004784487242 l -46.057469222290734 16.73861125354929" fill="#35ff67" stroke="none" /><path d="M 119.97218684219823 93.5106431181261 l 45.27633849376331 -14.71117414993182 a68.60635957801705,68.60635957801705 0 0,0 0.3552650182255218,1.1262871926957438 l -45.52285899575704 13.929636790809656" fill="#33ff51" stroke="none" /><path d="M 120.08093135843002 93.85539295169968 l 47.41697446414577 -14.509221225894642 a70.58716535471052,70.58716535471052 0 0,0 0.34552115895549507,1.164925580228863 l -47.65970152021296 13.69086625891925" fill="#36ff70" stroke="none" /><path d="M 120.37134235888165 94.90015583598534 l 47.53385019100366 -11.899816134799117 a70.00074017831571,70.00074017831571 0 0,0 0.28256032021837,1.1713949473063294 l -47.73164331148285 11.079835955833381" fill="#35ff67" stroke="none" /><path d="M 120.53481517161879 95.60439243477599 l 48.81783056243287 -10.449766581519135 a70.92372384378632,70.92372384378632 0 0,0 0.2452633696126707,1.1959912937442028 l -48.990473227960535 9.60789963161152" fill="#37ff76" stroke="none" /><path d="M 120.6074358757038 95.95851677861258 l 48.76292198471915 -9.563272801902437 a70.69183783249935,70.69183783249935 0 0,0 0.22390554375763408,1.1961123679213508 l -48.92031325238664 8.722482356518523" fill="#36ff72" stroke="none" /><path d="M 120.73433829027371 96.67025291283417 l 49.379232094895485 -7.929857800747457 a71.01191065158011,71.01191065158011 0 0,0 0.18342750706967748,1.208558090362326 l -49.50841549540446 7.078700597993048" fill="#37ff77" stroke="none" /><path d="M 120.78858239683441 97.02765380044208 l 47.11119352924632 -6.735946413768735 a68.59030920092098,68.59030920092098 0 0,0 0.1570522139162091,1.1702214142287284 l -47.22016174222037 5.924006657475343" fill="#33ff51" stroke="none" /><path d="M 120.87857604477298 97.74499172005257 l 46.508989023353706 -5.023242730478415 a67.77947228757225,67.77947228757225 0 0,0 0.11529893189780037,1.1610445094181134 l -46.58856508093373 4.221922690355867" fill="#31ff43" stroke="none" /><path d="M 120.96714384426684 98.82574320788733 l 52.78391121437546 -2.95614255895423 a73.86662521776789,73.86662521776789 0 0,0 0.06017102044974411,1.2701151408274964 l -52.8269758430587 2.0471163115037334" fill="#3cffa2" stroke="none" /><line stroke="#e1ed5e" stroke-width="0.3" x1="184.98032266829074" x2="189.97916517819016" y1="98.17113171792111" y2="98.06355123074" /><path d="M 185.9800911702706 98.14961562048488 a86.0,86.0 0 0,1 -9.607161424134198,41.387399972396054" fill="none" id="id52" stroke="none" /><text fill="#e1ed5e" style="font-size:6.75px; font-family:Arial;" text-anchor="middle"><textPath startOffset="21.466115282336823" xlink:href="#id52">April</textPath></text><path d="M 120.99513854157772 99.54816195383933 l 47.77714363512589 -1.0282157075783043 a68.7882065103176,68.7882065103176 0 0,0 0.015287336674703094,1.1840210726918592 l -47.787763978918306 0.2056583768259824" fill="#33ff54" stroke="none" /><path d="M 120.9904718944345 100.63252640178507 l 51.4154732603435 1.5493526996915439 a72.43881204278671,72.43881204278671 0 0,0 -0.048285184161504305,1.2460260528157323 l -51.38118594333079 -2.4341559995212823" fill="#39ff8d" stroke="none" /><path d="M 120.92983693683757 101.71520430193887 l 62.789510810512716 5.145612905816613 a84.0,84.0 0 0,0 -0.13050161489169865,1.4400744458057166 l -62.69163459934395 -6.2256687401709" fill="#4dd2ff" stroke="none" /><path d="M 120.81339534386255 102.79330883721812 l 49.87676601190216 6.693824288212032 a71.32394133419496,71.32394133419496 0 0,0 -0.173778911600024,1.21540930298311 l -49.754153049285534 -7.551379063175552" fill="#37ff7c" stroke="none" /><path d="M 120.70491114924044 103.5080841355445 l 48.940457710776855 8.29210239270991 a70.63796292185572,70.63796292185572 0 0,0 -0.21343952634782007,1.1970822138233626 l -48.79047174208984 -9.133303357266492" fill="#36ff71" stroke="none" /><path d="M 120.5718875245553 104.21870165774334 l 58.45041989587899 11.986497739510137 a80.66680579739331,80.66680579739331 0 0,0 -0.29065387636611584,1.3578381467246758 l -58.23543198078843 -12.99084970565098" fill="#47fdff" stroke="none" /><path d="M 120.41448212921028 104.9243191809786 l 54.665533274663964 13.186253383213554 a77.23342250378954,77.23342250378954 0 0,0 -0.32286765019533115,1.2896957685779817 l -54.430454310173566 -14.125276991188933" fill="#41ffd3" stroke="none" /><path d="M 120.13307415673323 105.97154293290107 l 49.34674269777413 14.636423147531623 a72.47160282557678,72.47160282557678 0 0,0 -0.3650264444054728,1.1929275406058104 l -49.08748948086252 -15.48367766068949" fill="#39ff8d" stroke="none" /><path d="M 119.41010516605496 108.01547362559984 l 47.830494449349516 19.751776895502616 a72.7483225795674,72.7483225795674 0 0,0 -0.487929993106546,1.1533223715139727 l -47.48341347505066 -20.57217379268275" fill="#3aff92" stroke="none" /><path d="M 119.12269723197855 108.67885076344098 l 44.84897985044983 20.354743804849388 a70.25186888826768,70.25186888826768 0 0,0 -0.5092436980587847,1.0968656211724581 l -44.49196153555122 -21.12372949330068" fill="#36ff6b" stroke="none" /><path d="M 118.81262510543309 109.33194174019688 l 44.48237807848226 22.065339545512145 a70.65441741452398,70.65441741452398 0 0,0 -0.5498304228265496,1.084867586662527 l -44.09596898586945 -22.827761343877366" fill="#36ff71" stroke="none" /><line stroke="#e1ed5e" stroke-width="0.3" x1="174.80103733775053" x2="179.2010983576182" y1="140.37084112569926" y2="142.7455964860345" /><path d="M 175.68104954172406 140.8457921977663 a86.0,86.0 0 0,1 -30.038265399797805,32.042727171017184" fill="none" id="id53" stroke="none" /><text fill="#e1ed5e" style="font-size:6.75px; font-family:Arial;" text-anchor="middle"><textPath startOffset="22.206326154141568" xlink:href="#id53">May</textPath></text><path d="M 118.30583269289576 110.29060199501023 l 46.44992608337018 26.111770496357252 a74.28621014488633,74.28621014488633 0 0,0 -0.6362012670458408,1.1092705346588076 l -45.99357282017196 -26.907460876874374" fill="#3cffa8" stroke="none" /><path d="M 117.55443506779139 111.5257021239791 l 40.15076243923787 26.36175565537736 a69.03150930051996,69.03150930051996 0 0,0 -0.6607199522959732,0.9876866810221319 l -39.69103938153118 -27.0489792506053" fill="#34ff58" stroke="none" /><path d="M 117.14729908036423 112.12312394758627 l 39.10823089379581 27.64948160490347 a68.89517258202898,68.89517258202898 0 0,0 -0.6929548884330875,0.9624537324862743 l -38.62649621298712 -28.31856894284088" fill="#33ff55" stroke="none" /><path d="M 116.27256486870786 113.27417163493432 l 40.209989432941235 32.80087100455607 a72.8916215670196,72.8916215670196 0 0,0 -0.8014746187652805,0.9654278090280847 l -39.639418814282415 -33.48816007069793" fill="#3aff94" stroke="none" /><path d="M 115.80600337817218 113.82643327865902 l 37.12347183266306 32.474066598981715 a70.32258268162391,70.32258268162391 0 0,0 -0.8048290674953095,0.904233989265344 l -36.55898391551941 -33.10827475798792" fill="#36ff6c" stroke="none" /><path d="M 115.32070863581623 114.36230785411682 l 35.556930792437164 33.332634836136684 a69.73766379810792,69.73766379810792 0 0,0 -0.82852810665545,0.86870840741652 l -34.977896134402755 -33.93975036013571" fill="#35ff63" stroke="none" /><path d="M 114.81725581225074 114.88116024355365 l 34.21360796654449 34.36116573214067 a69.48979975788758,69.48979975788758 0 0,0 -0.8548901465165133,0.8366899388911009 l -33.617067867652175 -34.94500577395434" fill="#34ff5f" stroke="none" /><path d="M 114.0293411484842 115.62618273729858 l 32.67686193358833 36.39619355260286 a69.91278167253753,69.91278167253753 0 0,0 -0.9023997191387363,0.7962628319236873 l -32.045519861543 -36.953279526298836" fill="#35ff66" stroke="none" /><path d="M 113.20401910651253 116.32954008644616 l 31.98057966553599 39.55069690701825 a71.86270835862476,71.86270835862476 0 0,0 -0.9685810073308058,0.7694993313140508 l -31.295041165487834 -40.095330152337425" fill="#38ff84" stroke="none" /><path d="M 112.63410532772338 116.77436683061366 l 31.186759091141816 41.40682095667286 a72.83761920021867,72.83761920021867 0 0,0 -1.0079860408815666,0.7456839755013426 l -30.469388079841686 -41.937514880913966" fill="#3aff93" stroke="none" /><path d="M 112.04921762599082 117.19931262002967 l 30.441516525079205 43.45287599530617 a74.05505028373949,74.05505028373949 0 0,0 -1.0503231850437142,0.7224218640311968 l -29.689036455412605 -43.97043864870246" fill="#3cffa5" stroke="none" /><path d="M 111.7513745106137 117.40417183066458 l 27.52074426289338 40.7591266559131 a70.18025793482934,70.18025793482934 0 0,0 -1.0070041602247368,0.6673874471384343 l -26.81506540392868 -41.22681212414285" fill="#36ff6a" stroke="none" /><path d="M 111.1453310114006 117.79835938074945 l 26.598745944550753 42.47644497181011 a71.11727908881295,71.11727908881295 0 0,0 -1.0431238668368312,0.640771876732782 l -25.86364287778161 -42.92800531537127" fill="#37ff79" stroke="none" /><line stroke="#e1ed5e" stroke-width="0.3" x1="143.8653032363475" x2="146.44561519142675" y1="172.8068346515853" y2="177.08958963109032" /><path d="M 144.38136562736335 173.6633856474863 a86.0,86.0 0 0,1 -40.68145358897372,12.25698825130547" fill="none" id="id54" stroke="none" /><text fill="#e1ed5e" style="font-size:6.75px; font-family:Arial;" text-anchor="middle"><textPath startOffset="21.466115282336833" xlink:href="#id54">June</textPath></text><path d="M 110.5260780823613 118.17145234162733 l 24.872309125986817 42.93773771890008 a70.62137726500245,70.62137726500245 0 0,0 -1.0571389059512761,0.600271060429816 l -24.129521453114343 -43.359511945124524" fill="#36ff71" stroke="none" /><path d="M 109.89434966115114 118.52300852407294 l 22.685335124755827 42.46874936481836 a69.14788782837977,69.14788782837977 0 0,0 -1.0546998829765448,0.5517691305784354 l -21.95094433925279 -42.85294791434151" fill="#34ff5a" stroke="none" /><path d="M 109.2508944713604 118.85261126421891 l 20.92841061785684 42.650490823119824 a68.50855437121457,68.50855437121457 0 0,0 -1.0631461906283861,0.5103747787892405 l -20.19115175922822 -43.00441987840862" fill="#33ff4f" stroke="none" /><path d="M 108.2653958097858 119.30500536409082 l 18.470525973158765 43.14053569790863 a67.92830862099828,67.92830862099828 0 0,0 -1.0788585539603575,0.45096296305345046 l -17.725195959700944 -43.452083703982055" fill="#32ff46" stroke="none" /><path d="M 107.59598834532513 119.57807347666477 l 18.94364216450272 48.82577504750036 a73.3719188826019,73.3719188826019 0 0,0 -1.1813919397223431,0.4467013439130945 l -18.1003800040201 -49.14462464152008" fill="#3bff9b" stroke="none" /><path d="M 107.2578585660854 119.70592522655815 l 17.106737547383474 46.446770477771075 a70.49689846171987,70.49689846171987 0 0,0 -1.1423197896569053,0.40959523477955684 l -16.304698197096833 -46.73435325359059" fill="#36ff6f" stroke="none" /><path d="M 106.57524785965236 119.94407469862006 l 15.001769054302871 45.50344093740093 a68.91258928405117,68.91258928405117 0 0,0 -1.1297682640482671,0.36171612124236996 l -14.216279445163662 -45.75492990530301" fill="#33ff56" stroke="none" /><path d="M 105.88484417918355 120.15858648285463 l 14.546494107811519 49.829145949508685 a72.90899996037328,72.90899996037328 0 0,0 -1.2077508881369754,0.34132246488505547 l -13.68661205156994 -50.07215720773226" fill="#3aff94" stroke="none" /><path d="M 104.48393922423573 120.51570834832081 l 11.420709084666866 52.254039360218954 a74.4875427128215,74.4875427128215 0 0,0 -1.2549680299495312,0.2629907525015249 l -10.519549593287955 -52.44288609344702" fill="#3dffab" stroke="none" /><path d="M 103.06178313531737 120.77559828337769 l 7.170772223553632 48.65696769301418 a70.18252209231562,70.18252209231562 0 0,0 -1.196683550459848,0.1658494358883896 l -6.332160081906953 -48.77319169439517" fill="#36ff6a" stroke="none" /><line stroke="#e1ed5e" stroke-width="0.3" x1="102.19456741930631" x2="102.32365962044197" y1="184.97166512339345" y2="189.96999836594603" /><path d="M 102.22038585953345 185.97133177190398 a86.0,86.0 0 0,1 -42.740103519485714,-10.115201625700543" fill="none" id="id55" stroke="none" /><text fill="#e1ed5e" style="font-size:6.75px; font-family:Arial;" text-anchor="middle"><textPath startOffset="22.20632615414155" xlink:href="#id55">July</textPath></text><path d="M 97.65516085044442 120.86867818915974 l -5.509140614462119 49.030434605217884 a70.33897189733956,70.33897189733956 0 0,0 -1.2020346716530559,-0.1455496587524502 l 6.3523027091665645 -48.928339417740084" fill="#36ff6c" stroke="none" /><path d="M 97.2962882734958 120.8252237178851 l -6.448107760374841 49.66627371937344 a71.0830993335789,71.0830993335789 0 0,0 -1.2120393105324319,-0.16797760431243713 l 7.3020756620941025 -49.5479215495684" fill="#37ff78" stroke="none" /><path d="M 96.22490169976321 120.6578951692458 l -9.320078225332761 51.000843855117054 a72.84544273183857,72.84544273183857 0 0,0 -1.2315472047936014,-0.23602895290573886 l 10.196593044698057 -50.83285770386285" fill="#3aff93" stroke="none" /><path d="M 95.51606077576429 120.51570834832081 l -10.328140847378783 47.25512876266038 a69.37062835790854,69.37062835790854 0 0,0 -1.1643689866723281,-0.265006590506656 l 11.140029983443974 -47.070345438576034" fill="#34ff5d" stroke="none" /><path d="M 90.42595943632237 118.69057910512821 l -19.627419177419892 38.316928816537356 a64.05139507028478,64.05139507028478 0 0,0 -0.9769640260419898,-0.5111014042537678 l 20.284074105988378 -37.97339799333887" fill="#51ff2b" stroke="none" /><line stroke="#e1ed5e" stroke-width="0.3" x1="58.666819895761336" x2="56.23545636021788" y1="174.27360380694188" y2="178.64263932499728" /><path d="M 58.180547188652646 175.14741091055294 a86.0,86.0 0 0,1 -31.652253787137756,-30.449443065178592" fill="none" id="id56" stroke="none" /><text fill="#e1ed5e" style="font-size:6.75px; font-family:Arial;" text-anchor="middle"><textPath startOffset="22.20632615414155" xlink:href="#id56">August</textPath></text><path d="M 87.95078237400918 117.19931262002967 l -30.98210756509505 44.22452728300172 a74.99722032271738,74.99722032271738 0 0,0 -1.0509348775367526,-0.7498141310708583 l 31.738769770480687 -43.68466889008665" fill="#3effb3" stroke="none" /><path d="M 87.65650970185807 116.9893568818739 l -32.534496891233495 44.779893312719395 a76.35099215970942,76.35099215970942 0 0,0 -1.056606945003139,-0.7816525580088296 l 33.3004888066552 -44.213230805970795" fill="#40ffc6" stroke="none" /><path d="M 87.07902340077011 116.55440617244103 l -31.763332441635054 40.695306782030706 a72.62380537970269,72.62380537970269 0 0,0 -0.9788392363370317,-0.7776490888469862 l 32.459129170689444 -40.14252377917858" fill="#3aff90" stroke="none" /><path d="M 86.51685102203217 116.09983520530335 l -36.5399451368463 43.631283469117065 a77.91095226550146,77.91095226550146 0 0,0 -1.0207615581426877,-0.8699151447982759 l 37.285572171566045 -42.99584393409584" fill="#43ffdc" stroke="none" /><path d="M 85.70375840098266 115.38237550388516 l -30.64989248773534 32.97846865098171 a66.02216458671793,66.02216458671793 0 0,0 -0.8257931796610676,-0.7808389947809593 l 31.213021501787225 -32.44599501945482" fill="#36ff2e" stroke="none" /><path d="M 84.67929136418377 114.36230785411684 l -36.13495512278672 33.87450033185161 a70.5299581511879,70.5299581511879 0 0,0 -0.8226936472878202,-0.8928714701622465 l 36.71269517807027 -33.24747760688802" fill="#36ff6f" stroke="none" /><path d="M 84.19399662182784 113.82643327865904 l -37.60065530644574 32.89148682242968 a70.95657298958977,70.95657298958977 0 0,0 -0.796259424770679,-0.9262296010220533 l 38.1612572407872 -32.2393801222461" fill="#37ff76" stroke="none" /><path d="M 83.72743513129214 113.27417163493433 l -38.081231803011455 31.064359620096777 a70.14442648196629,70.14442648196629 0 0,0 -0.7551618284170116,-0.9421804923894711 l 38.61031154348333 -30.40425129412905" fill="#35ff69" stroke="none" /><path d="M 83.50135304334701 112.99209946851258 l -40.668622462765796 32.02509815937214 a72.76430976200108,72.76430976200108 0 0,0 -0.7664271080565425,-0.9907103525769513 l 41.21385638804041 -31.320309812681938" fill="#3aff92" stroke="none" /><path d="M 83.06392112726016 112.41649034213515 l -44.01535758342312 32.26935032877449 a75.57712592137645,75.57712592137645 0 0,0 -0.7601626775603806,-1.0557994734247398 l 44.564300053359105 -31.506917249898617" fill="#3fffbb" stroke="none" /><path d="M 82.05923443525364 110.91462005526583 l -42.399666185207224 25.79467666591638 a70.62959839567691,70.62959839567691 0 0,0 -0.622950112601564,-1.0441002207437535 l 42.83739717350702 -25.061014351286516" fill="#36ff71" stroke="none" /><line stroke="#e1ed5e" stroke-width="0.3" x1="26.63291911575756" x2="22.317208475507996" y1="142.92168965132927" y2="145.44649492493687" /><path d="M 25.769776987707644 143.4266507060508 a86.0,86.0 0 0,1 -11.730757126820373,-40.83630448921669" fill="none" id="id57" stroke="none" /><text fill="#e1ed5e" style="font-size:6.75px; font-family:Arial;" text-anchor="middle"><textPath startOffset="21.46611528233685" xlink:href="#id57">September</textPath></text><path d="M 81.51974371655577 109.97397251340807 l -32.38965998021752 17.481011811006884 a57.80592136559913,57.80592136559913 0 0,0 -0.46505549640321153,-0.8797097384551227 l 32.68576798484562 -16.920887057465634" fill="#acff20" stroke="none" /><path d="M 81.18737489456691 109.33194174019688 l -47.433923772749004 23.52944422564377 a73.94914418615889,73.94914418615889 0 0,0 -0.5558395993292271,-1.1451942088692584 l 47.83191662869295 -22.709461060809225" fill="#3cffa3" stroke="none" /><path d="M 80.73074385275274 108.34839909993369 l -51.07825461349074 22.129637573081247 a76.6660484808875,76.6660484808875 0 0,0 -0.5142065573521847,-1.2154324074190783 l 51.45161215203523 -21.24713063999601" fill="#41ffcb" stroke="none" /><path d="M 80.45479744820244 107.68017299344265 l -49.56269665349583 19.47537168323492 a74.25176994022448,74.25176994022448 0 0,0 -0.4571989811227501,-1.1936022691783774 l 49.890589914212086 -18.619345847223386" fill="#3cffa8" stroke="none" /><path d="M 80.20201598880116 107.00284435728193 l -50.89444155161926 18.002128531630746 a74.98444972879267,74.98444972879267 0 0,0 -0.41994565832297925,-1.2205586552918948 l 51.19677804088546 -17.123397173249554" fill="#3effb3" stroke="none" /><path d="M 79.86692584326677 105.97154293290107 l -53.07906186749172 15.743442571776106 a76.36463485605071,76.36463485605071 0 0,0 -0.3629406114351394,-1.2634438817407612 l 53.34219511581296 -14.827441214530749" fill="#40ffc7" stroke="none" /><path d="M 79.10278846688536 102.07522291339032 l -36.6705347459206 3.6416118882856408 a57.85090847857992,57.85090847857992 0 0,0 -0.08987663070722073,-0.9917811305553494 l 36.7277859729049 -3.009849369181725" fill="#acff21" stroke="none" /><path d="M 79.04373962182676 101.35467743843564 l -58.27094668165676 3.7668140861689223 a79.39256900956016,79.39256900956016 0 0,0 -0.07641969200460379,-1.3645249365876613 l 58.327152724548895 -2.7632174332458233" fill="#45fff0" stroke="none" /><line stroke="#e1ed5e" stroke-width="0.3" x1="15.007084014347285" x2="10.007500721073583" y1="101.09737516637583" y2="101.16192664675087" /><path d="M 14.007167355692545 101.11028546245083 a86.0,86.0 0 0,1 10.666146001902526,-42.60595125391555" fill="none" id="id58" stroke="none" /><text fill="#e1ed5e" style="font-size:6.75px; font-family:Arial;" text-anchor="middle"><textPath startOffset="22.20632615414155" xlink:href="#id58">October</textPath></text><path d="M 79.00486145842228 99.54816195383935 l -57.10972193516519 -1.229062867332899 a78.12294578401699,78.12294578401699 0 0,0 0.04050602398673583,-1.3441977372792389 l 57.08010421672281 2.211930752037132" fill="#43ffdf" stroke="none" /><path d="M 79.08570108090925 98.10471618934814 l -50.343889723890044 -4.562235603883166 a71.55018522455225,71.55018522455225 0 0,0 0.12171325115190186,-1.2256358289477023 l 50.25789934705592 5.428146963535299" fill="#38ff7f" stroke="none" /><path d="M 79.16333360222342 97.38593545837743 l -53.889354805208576 -6.760690452012279 a75.31178045976385,75.31178045976385 0 0,0 0.1724424629801664,-1.2848966459612636 l 53.76499634317058 7.687305440038202" fill="#3effb7" stroke="none" /><path d="M 79.26566170972629 96.67025291283419 l -45.189760405907265 -7.257066561505602 a66.76876075033523,66.76876075033523 0 0,0 0.19200196049115914,-1.133206439426656 l 45.05814658389588 8.033858789248086" fill="#30ff33" stroke="none" /><path d="M 79.32604984820605 96.31383870115002 l -39.558151966739814 -7.053210816664835 a61.182025457261346,61.182025457261346 0 0,0 0.19378467300086458,-1.0352054719146646 l 39.43088156982909 7.733094366042073" fill="#7aff26" stroke="none" /><path d="M 79.3925641242962 95.95851677861259 l -55.14167728781208 -10.814259711980819 a77.19210609357316,77.19210609357316 0 0,0 0.2669402425866534,-1.301695424750077 l 54.947357749310434 11.761830792894298" fill="#41ffd2" stroke="none" /><path d="M 79.54389044137918 95.25157060432595 l -51.93869922249647 -12.056410113292475 a74.31965399123344,74.31965399123344 0 0,0 0.29999375973438186,-1.243667809070623 l 51.723472662501266 12.948663154022494" fill="#3dffa9" stroke="none" /><path d="M 79.71946130924805 94.55025226153421 l -52.70290135130994 -14.162223293450275 a75.57256068263109,75.57256068263109 0 0,0 0.34840112648834226,-1.2533842217831643 l 52.45131345425524 15.067318818652382" fill="#3fffbb" stroke="none" /><path d="M 79.91906864156998 93.8553929516997 l -35.027141119010125 -10.718029675019325 a57.6302712941857,57.6302712941857 0 0,0 0.29842742724730437,-0.9460964970224334 l 34.837458207994615 11.319376338468173" fill="#afff20" stroke="none" /><path d="M 80.14247586403 93.16781622104843 l -50.42156206485955 -17.34805286349489 a74.32249862126771,74.32249862126771 0 0,0 0.42663563025290474,-1.2061563780968079 l 50.11547335379684 18.21340686801831" fill="#3dffa9" stroke="none" /><path d="M 80.38941819471856 92.48833698450439 l -49.58149036557258 -18.99175920073519 a74.09436038234264,74.09436038234264 0 0,0 0.4664643980921993,-1.1871010134405289 l 49.24723241759869 19.84240921907148" fill="#3cffa6" stroke="none" /><path d="M 80.52162464483688 92.15188598940014 l -52.60928999789265 -21.197029957158573 a77.71905740654587,77.71905740654587 0 0,0 0.5106449732261725,-1.236567306663138 l 52.23662333778028 22.099471834275025" fill="#42ffda" stroke="none" /><path d="M 80.803312248108 91.48605970444005 l -51.79536039123653 -22.97180699386723 a77.66095017400927,77.66095017400927 0 0,0 0.552493619924837,-1.217346455699824 l 51.39226445434834 23.859975458409124" fill="#42ffd9" stroke="none" /><path d="M 81.10775173730289 90.83032412892265 l -45.02860201559332 -21.855402261783755 a71.0523087130162,71.0523087130162 0 0,0 0.5435162833947161,-1.0956956615105669 l 44.64572571924519 22.627257511793285" fill="#37ff78" stroke="none" /><path d="M 81.26839172434947 90.50648371742162 l -46.58202990103589 -23.608611328686305 a73.22309870708533,73.22309870708533 0 0,0 0.5794756323763539,-1.1193624783618261 l 46.168744835499425 24.406946529308467" fill="#3bff99" stroke="none" /><line stroke="#e1ed5e" stroke-width="0.3" x1="26.266209847984243" x2="21.928928074336255" y1="57.71137044288968" y2="55.22380399835378" /><path d="M 25.398753493254645 57.2138571539825 a86.0,86.0 0 0,1 29.58750427330803,-30.4925239686951" fill="none" id="id59" stroke="none" /><text fill="#e1ed5e" style="font-size:6.75px; font-family:Arial;" text-anchor="middle"><textPath startOffset="21.46611528233685" xlink:href="#id59">November</textPath></text><path d="M 81.78341655067845 89.55222093294921 l -41.75231004578684 -23.946252715880842 a69.13188561953856,69.13188561953856 0 0,0 0.6009217574033728,-1.0271700750520019 l 41.333928613913145 24.661402203286734" fill="#34ff59" stroke="none" /><path d="M 82.15384107792192 88.93136811851018 l -48.41946717542944 -30.03095850500816 a77.97633956548991,77.97633956548991 0 0,0 0.7172798547527015,-1.1345644750890727 l 47.89535972443077 30.85997062781145" fill="#43ffdd" stroke="none" /><path d="M 82.54541684631803 88.32363383020207 l -41.69407817623368 -27.89154685686032 a71.16307946123644,71.16307946123644 0 0,0 0.6898600917132902,-1.012284560325009 l 41.207793618851646 28.60510944045574" fill="#37ff79" stroke="none" /><path d="M 83.6137871275137 86.86637796730984 l -37.49188641722325 -30.049912650844696 a69.04829650929744,69.04829650929744 0 0,0 0.7513161843776585,-0.921024805421391 l 36.969071740769195 30.690821625874168" fill="#34ff58" stroke="none" /><path d="M 84.5562425177563 85.77008943001954 l -36.48932501328731 -33.62134068053194 a70.61718844394255,70.61718844394255 0 0,0 0.831375076852987,-0.8868529660358773 l 35.90518261446387 34.24446306344586" fill="#36ff71" stroke="none" /><path d="M 85.05521093208273 85.24692304244772 l -35.78696998493177 -35.32789388100012 a71.28685023711083,71.28685023711083 0 0,0 0.8695780452181939,-0.8658438007410265 l 35.173556139546264 35.93867353239126" fill="#37ff7b" stroke="none" /><path d="M 85.83668400450813 84.49514656593477 l -33.84767273296505 -37.05369596892929 a71.18606713417333,71.18606713417333 0 0,0 0.9118223759689601,-0.8186431321294932 l 33.20483936940012 37.63083810982806" fill="#37ff7a" stroke="none" /><line stroke="#e1ed5e" stroke-width="0.3" x1="56.76296977257108" x2="54.21961505331056" y1="26.818313649435495" y2="22.513508569990535" /><path d="M 56.25429882871898 25.957352633546506 a86.0,86.0 0 0,1 42.26535254187918,-11.944610805530505" fill="none" id="id60" stroke="none" /><text fill="#e1ed5e" style="font-size:6.75px; font-family:Arial;" text-anchor="middle"><textPath startOffset="22.20632615414155" xlink:href="#id60">December</textPath></text></svg>