<?xml version="1.0" encoding="utf-8" ?>
<svg baseProfile="full" height="200mm" version="1.1" viewBox="0,0,200,200" width="200mm" xmlns="http://www.w3.org/2000/svg" xmlns:ev="http://www.w3.org/2001/xml-events" xmlns:xlink="http://www.w3.org/1999/xlink"><defs /><rect fill="#1a1a1a" height="200" width="200" x="0" y="0" /><text alignment-baseline="middle" fill="#e1ed5e" style="dominant-baseline: central; font-size:9.0px; font-family:Arial;" text-anchor="middle" x="100.0" y="100.0">2015</text><line stroke="#e1ed5e" stroke-width="0.3" x1="100.0" x2="100.0" y1="15.0" y2="10.0" /><path d="M 100.0 14.0 a86.0,86.0 0 0,1 42.46469731375804,11.215312516191453" fill="none" id="id1" stroke="none" /><text fill="#e1ed5e" style="font-size:6.75px; font-family:Arial;" text-anchor="middle"><textPath startOffset="22.20632615414155" xlink:href="#id1">January</textPath></text><line stroke="#e1ed5e" stroke-width="0.3" x1="143.23703022742887" x2="145.7803849466894" y1="26.818313649435467" y2="22.513508569990506" /><path d="M 143.74570117128098 25.957352633546478 a86.0,86.0 0 0,1 28.547481713284135,27.462654790039114" fill="none" id="id2" stroke="none" /><text fill="#e1ed5e" style="font-size:6.75px; font-family:Arial;" text-anchor="middle"><textPath startOffset="19.985693538727396" xlink:href="#id2">February</textPath></text><line stroke="#e1ed5e" stroke-width="0.3" x1="172.23445277983987" x2="176.4835382374775" y1="55.19839476539836" y2="52.563006222186495" /><path d="M 173.08426987136738 54.67131705675599 a86.0,86.0 0 0,1 12.851231095245387,41.99856678651699" fill="none" id="id3" stroke="none" /><text fill="#e1ed5e" style="font-size:6.75px; font-family:Arial;" text-anchor="middle"><textPath startOffset="22.20632615414155" xlink:href="#id3">March</textPath></text><line stroke="#e1ed5e" stroke-width="0.3" x1="184.98032266829074" x2="189.97916517819016" y1="98.17113171792111" y2="98.06355123074" /><path d="M 185.9800911702706 98.14961562048488 a86.0,86.0 0 0,1 -9.607161424134198,41.387399972396054" fill="none" id="id4" stroke="none" /><text fill="#e1ed5e" style="font-size:6.75px; font-family:Arial;" text-anchor="middle"><textPath startOffset="21.466115282336823" xlink:href="#id4">April</textPath></text><line stroke="#e1ed5e" stroke-width="0.3" x1="174.80103733775053" x2="179.2010983576182" y1="140.37084112569926" y2="142.7455964860345" /><path d="M 175.68104954172406 140.8457921977663 a86.0,86.0 0 0,1 -30.038265399797805,32.042727171017184" fill="none" id="id5" stroke="none" /><text fill="#e1ed5e" style="font-size:6.75px; font-family:Arial;" text-anchor="middle"><textPath startOffset="22.206326154141568" xlink:href="#id5">May</textPath></text><line stroke="#e1ed5e" stroke-width="0.3" x1="143.8653032363475" x2="146.44561519142675" y1="172.8068346515853" y2="177.08958963109032" /><path d="M 144.38136562736335 173.6633856474863 a86.0,86.0 0 0,1 -40.68145358897372,12.25698825130547" fill="none" id="id6" stroke="none" /><text fill="#e1ed5e" style="font-size:6.75px; font-family:Arial;" text-anchor="middle"><textPath startOffset="21.466115282336833" xlink:href="#id6">June</textPath></text><line stroke="#e1ed5e" stroke-width="0.3" x1="102.19456741930631" x2="102.32365962044197" y1="184.97166512339345" y2="189.96999836594603" /><path d="M 102.22038585953345 185.97133177190398 a86.0,86.0 0 0,1 -42.740103519485714,-10.115201625700543" fill="none" id="id7" stroke="none" /><text fill="#e1ed5e" style="font-size:6.75px; font-family:Arial;" text-anchor="middle"><textPath startOffset="22.20632615414155" xlink:href="#id7">July</textPath></text><line stroke="#e1ed5e" stroke-width="0.3" x1="58.666819895761336" x2="56.23545636021788" y1="174.27360380694188" y2="178.64263932499728" /><path d="M 58.180547188652646 175.14741091055294 a86.0,86.0 0 0,1 -31.652253787137756,-30.449443065178592" fill="none" id="id8" stroke="none" /><text fill="#e1ed5e" style="font-size:6.75px; font-family:Arial;" text-anchor="middle"><textPath startOffset="22.20632615414155" xlink:href="#id8">August</textPath></text><line stroke="#e1ed5e" stroke-width="0.3" x1="26.63291911575756" x2="22.317208475507996" y1="142.92168965132927" y2="145.44649492493687" /><path d="M 25.769776987707644 143.4266507060508 a86.0,86.0 0 0,1 -11.730757126820373,-40.83630448921669" fill="none" id="id9" stroke="none" /><text fill="#e1ed5e" style="font-size:6.75px; font-family:Arial;" text-anchor="middle"><textPath startOffset="21.46611528233685" xlink:href="#id9">September</textPath></text><line stroke="#e1ed5e" stroke-width="0.3" x1="15.007084014347285" x2="10.007500721073583" y1="101.09737516637583" y2="101.16192664675087" /><path d="M 14.007167355692545 101.11028546245083 a86.0,86.0 0 0,1 10.666146001902526,-42.60595125391555" fill="none" id="id10" stroke="none" /><text fill="#e1ed5e" style="font-size:6.75px; font-family:Arial;" text-anchor="middle"><textPath startOffset="22.20632615414155" xlink:href="#id10">October</textPath></text><path d="M 80.65960295795067 91.81776055985345 l -38.72103682347888 -16.381504163105042 a63.04369597610366,63.04369597610366 0 0,0 0.4314268951247547,-0.9957927563664775 l 38.43331921851145 17.045596064058117" fill="#ffdd14" stroke="none" /><path d="M 80.95270993114464 91.15688171328213 l -40.68847095991944 -18.89050674943995 a65.85981402443443,65.85981402443443 0 0,0 0.4862392628378408,-1.024143894008723 l 40.357273503239846 19.588093059089204" fill="#d7ff1c" stroke="none" /><path d="M 81.10775173730289 90.83032412892265 l -46.65498634727371 -22.644795718609885 a72.8601438891358,72.8601438891358 0 0,0 0.5573453605030122,-1.123574237099168 l 46.258280973817286 23.444529544208013" fill="#33ff2f" stroke="none" /><path d="M 81.26839172434947 90.50648371742162 l -45.89122150780939 -23.258497198990213 a72.44863364011005,72.44863364011005 0 0,0 0.5733466424488153,-1.1075232206401338 l 45.48406543220047 24.044993141890682" fill="#3cff2e" stroke="none" /><path d="M 81.43458229118936 90.18545643968196 l -47.43581050315073 -25.076776391689943 a74.6563214569322,74.6563214569322 0 0,0 0.6103755112522525,-1.1309331223759092 l 46.99712689268 25.889590497398324" fill="#34ff59" stroke="none" /><path d="M 81.6062741919709 89.86733742301443 l -45.323552807951096 -24.967658656338525 a72.74561254748626,72.74561254748626 0 0,0 0.6136347329661351,-1.0915877187432323 l 44.88706043369253 25.74412988501654" fill="#36ff2f" stroke="none" /><line stroke="#e1ed5e" stroke-width="0.3" x1="26.266209847984243" x2="21.928928074336255" y1="57.71137044288968" y2="55.22380399835378" /><path d="M 25.398753493254645 57.2138571539825 a86.0,86.0 0 0,1 29.58750427330803,-30.4925239686951" fill="none" id="id11" stroke="none" /><text fill="#e1ed5e" style="font-size:6.75px; font-family:Arial;" text-anchor="middle"><textPath startOffset="21.46611528233685" xlink:href="#id11">November</textPath></text><path d="M 81.96595687620814 89.24020034530311 l -44.11527970293054 -26.320862607244546 a72.37066976064493,72.37066976064493 0 0,0 0.647490738831933,-1.064304528413115 l 43.655673165812395 27.076334908864737" fill="#3eff2e" stroke="none" /><path d="M 82.54541684631803 88.32363383020207 l -43.957810806360406 -29.405886722049463 a73.88662689941363,73.88662689941363 0 0,0 0.7162623595705977,-1.0510266305368705 l 43.44512398112107 30.158191375856745" fill="#32ff45" stroke="none" /><path d="M 83.17141714833178 87.43820079747577 l -47.49336099028398 -35.45171150010434 a80.26586864663386,80.26586864663386 0 0,0 0.836003650087151,-1.1000828082683336 l 46.876081399972726 36.2639790842537" fill="#43ffde" stroke="none" /><path d="M 83.6137871275137 86.86637796730984 l -49.15863861745889 -39.40086609807048 a84.0,84.0 0 0,0 0.9140060316944298,-1.1204633215676711 l 48.47313409368807 40.241213589246236" fill="#4dd2ff" stroke="none" /><path d="M 84.07557802195018 86.31012108654704 l -47.489729370722316 -40.8258865291296 a83.62609205909156,83.62609205909156 0 0,0 0.9477947774881943,-1.0834932735628287 l 46.77994272965628 41.63729535889537" fill="#4cd9ff" stroke="none" /><path d="M 85.57189188830299 84.74124197986013 l -40.28549121216675 -42.60479318356191 a79.63522153466846,79.63522153466846 0 0,0 1.004132325458586,-0.9332315622195984 l 39.546151002913305 43.29192933185615" fill="#41ffd0" stroke="none" /><path d="M 86.10567301691215 84.25364557470407 l -34.57006353389548 -39.17803817142794 a73.24947815719727,73.24947815719727 0 0,0 0.9526136538389659,-0.826097173398331 l 33.89055608140974 39.76730033824595" fill="#30ff35" stroke="none" /><path d="M 86.93701828274178 83.55741782278169 l -37.642121660502006 -47.38073528113004 a81.51333240604549,81.51333240604549 0 0,0 1.10612600267577,-0.8633488901683617 l 36.820963102666816 48.02166256052163" fill="#46fff9" stroke="none" /><path d="M 88.70189139769569 82.29822771554957 l -18.598795388850668 -29.14042096137866 a55.56991934793441,55.56991934793441 0 0,0 0.8107409044012513,-0.5076858799585524 l 18.094435332077175 29.456251182660143" fill="#ff0000" stroke="none" /><path d="M 89.00827224532344 82.1063720568725 l -19.78820551849664 -32.21356961461065 a58.80591415318015,58.80591415318015 0 0,0 0.8670734167891971,-0.5224020318648155 l 19.230770035489794 32.54941825593408" fill="#ff6409" stroke="none" /><line stroke="#e1ed5e" stroke-width="0.3" x1="56.76296977257108" x2="54.21961505331056" y1="26.818313649435495" y2="22.513508569990535" /><path d="M 56.25429882871898 25.957352633546506 a86.0,86.0 0 0,1 42.26535254187918,-11.944610805530505" fill="none" id="id12" stroke="none" /><text fill="#e1ed5e" style="font-size:6.75px; font-family:Arial;" text-anchor="middle"><textPath startOffset="22.20632615414155" xlink:href="#id12">December</textPath></text><path d="M 89.63071344664047 81.73862282372117 l -23.674940774101632 -41.69399899184583 a68.94676602847434,68.94676602847434 0 0,0 1.0370772630848035,-0.5771323740869683 l 22.953739421944782 42.095346763492984" fill="#8bff24" stroke="none" /></svg>