<?xml version="1.0" encoding="utf-8" ?>
<svg baseProfile="full" height="200mm" version="1.1" viewBox="0,0,200,200" width="200mm" xmlns="http://www.w3.org/2000/svg" xmlns:ev="http://www.w3.org/2001/xml-events" xmlns:xlink="http://www.w3.org/1999/xlink"><defs /><rect fill="#1a1a1a" height="200" width="200" x="0" y="0" /><text alignment-baseline="middle" fill="#e1ed5e" style="dominant-baseline: central; font-size:9.0px; font-family:Arial;" text-anchor="middle" x="100.0" y="100.0">2017</text><line stroke="#e1ed5e" stroke-width="0.3" x1="100.0" x2="100.0" y1="15.0" y2="10.0" /><path d="M 100.0 14.0 a86.0,86.0 0 0,1 42.46469731375804,11.215312516191453" fill="none" id="id25" stroke="none" /><text fill="#e1ed5e" style="font-size:6.75px; font-family:Arial;" text-anchor="middle"><textPath startOffset="22.20632615414155" xlink:href="#id25">January</textPath></text><path d="M 100.36148047927253 79.00311137660856 l 0.6427379820359945 -37.33396019058219 a58.3394924393132,58.3394924393132 0 0,0 1.0039208897056275,0.02592831472596896 l -1.28528550693649 37.31736508371386" fill="#c1ff1e" stroke="none" /><path d="M 101.08401301168833 79.027996857942 l 2.4213710802695054 -46.845380411449135 a67.90791728271196,67.90791728271196 0 0,0 1.1668454161839472,0.07038730202082781 l -3.227378545293065 46.796759840048004" fill="#30ff32" stroke="none" /><path d="M 102.52436894288641 79.15227682838746 l 5.961435458399431 -49.23303960475757 a70.59264967158228,70.59264967158228 0 0,0 1.205067865850842,0.1564523946667664 l -6.808018052758119 49.12312888692667" fill="#35ff61" stroke="none" /><path d="M 103.2404852339499 79.25152402106235 l 7.735823008049118 -49.531636860500385 a71.13208561083752,71.13208561083752 0 0,0 1.2081303544673767,0.19935186014744471 l -8.58728256865537 49.391138737413314" fill="#36ff6a" stroke="none" /><path d="M 103.95276090670814 79.375362276772 l 10.108481938856007 -52.74383724218841 a74.70375940414823,74.70375940414823 0 0,0 1.2608343653293457,0.2529115123711897 l -11.014882713652478 52.562021773740014" fill="#3cffa5" stroke="none" /><path d="M 105.01212808612495 79.60689891045804 l 12.922631608048878 -52.57897008964848 a75.14372081197868,75.14372081197868 0 0,0 1.253437022455725,0.3195290059634576 l -13.825777519189627 52.34873808751615" fill="#3dffab" stroke="none" /><path d="M 105.71112130821622 79.79150937346287 l 13.998040394392115 -49.53130091861316 a72.47130176684132,72.47130176684132 0 0,0 1.1975357451148294,0.3495935225913306 l -14.848566357230371 49.28300906710313" fill="#38ff80" stroke="none" /><line stroke="#e1ed5e" stroke-width="0.3" x1="143.23703022742887" x2="145.7803849466894" y1="26.818313649435467" y2="22.513508569990506" /><path d="M 143.74570117128098 25.957352633546478 a86.0,86.0 0 0,1 28.547481713284135,27.462654790039114" fill="none" id="id26" stroke="none" /><text fill="#e1ed5e" style="font-size:6.75px; font-family:Arial;" text-anchor="middle"><textPath startOffset="19.985693538727396" xlink:href="#id26">February</textPath></text><path d="M 112.48926042617603 83.11751280151076 l 22.953760531915954 -31.02798365266444 a59.595477612105725,59.595477612105725 0 0,0 0.8194487323381765,0.6171917962432636 l -23.484455418012512 30.628275266915324" fill="#acff20" stroke="none" /><path d="M 113.34407831869373 83.78471172551755 l 25.02988437437129 -30.415498239306288 a60.390324255324934,60.390324255324934 0 0,0 0.7969868194265861,0.6674535411558512 l -25.549728730756993 29.980143540756615" fill="#9fff22" stroke="none" /><path d="M 113.89432698308785 84.25364557470407 l 27.30083464265525 -30.939866242741157 a62.26270586503409,62.26270586503409 0 0,0 0.7975230362017561,0.7160240563386386 l -27.829368666452996 30.465343177633223" fill="#82ff25" stroke="none" /><path d="M 114.42810811169701 84.74124197986012 l 28.8901953715584 -30.553451423876613 a63.04945638790117,63.04945638790117 0 0,0 0.782163803341722,0.75244095910716 l -29.411842418512542 30.051627378007144" fill="#75ff27" stroke="none" /><path d="M 115.4437574822437 85.77008943001952 l 31.92176303080314 -29.41277947978008 a64.40634229834302,64.40634229834302 0 0,0 0.7442194544453975,0.8217857095716433 l -32.42332612586458 28.85894098293889" fill="#60ff29" stroke="none" /><path d="M 116.15771136456269 86.58626213691792 l 30.650230984611625 -25.445074156492304 a60.83576857849537,60.83576857849537 0 0,0 0.6619554693274674,0.8114791348997378 l -31.0836849460155 24.91371085198446" fill="#98ff23" stroke="none" /><path d="M 116.60985879189232 87.15038557335679 l 34.546325720918965 -26.725511091504142 a64.67724308971364,64.67724308971364 0 0,0 0.6736413896997175,0.8864331054887121 l -35.001243050842795 26.126893210134398" fill="#5cff2a" stroke="none" /><path d="M 117.04232023915458 87.72973835380427 l 38.87275382618307 -27.987906204201472 a68.9000405399224,68.9000405399224 0 0,0 0.6846937597944127,0.9684507663547725 l -39.34876020578137 27.314628937514907" fill="#31ff44" stroke="none" /><path d="M 117.2510076193507 88.02491185347247 l 35.92316035121354 -24.93668898650782 a64.7299886488531,64.7299886488531 0 0,0 0.6274972393546234,0.9207747696604619 l -36.34708205623689 24.314636193576955" fill="#5cff2a" stroke="none" /><path d="M 117.65298651832404 88.62581576622439 l 37.78078922211745 -24.34294370891558 a65.94404234891982,65.94404234891982 0 0,0 0.6065985320856827,0.959493202806974 l -38.194215350449085 23.689002858394403" fill="#4aff2c" stroke="none" /><line stroke="#e1ed5e" stroke-width="0.3" x1="172.23445277983987" x2="176.4835382374775" y1="55.19839476539836" y2="52.563006222186495" /><path d="M 173.08426987136738 54.67131705675599 a86.0,86.0 0 0,1 12.851231095245387,41.99856678651699" fill="none" id="id27" stroke="none" /><text fill="#e1ed5e" style="font-size:6.75px; font-family:Arial;" text-anchor="middle"><textPath startOffset="22.20632615414155" xlink:href="#id27">March</textPath></text><path d="M 118.3937258080291 89.86733742301442 l 36.94305051772229 -20.351040858574297 a63.17764627835866,63.17764627835866 0 0,0 0.5165281036397562,0.9570481290210098 l -37.28788672058052 19.712111746220828" fill="#73ff27" stroke="none" /><path d="M 118.73160827565052 90.50648371742162 l 39.48529370607968 -20.01185766885462 a65.26695004643838,65.26695004643838 0 0,0 0.4992610480966867,1.0064798076408137 l -39.82391476712978 19.329218272714858" fill="#54ff2b" stroke="none" /><path d="M 119.196687751892 91.48605970444005 l 41.4246107252769 -18.372266457637163 a66.31598557386947,66.31598557386947 0 0,0 0.45382015299541933,1.0474794829730958 l -41.734721588115 17.656487830077463" fill="#44ff2d" stroke="none" /><path d="M 120.08093135843002 93.85539295169968 l 40.7802642275825 -12.478440094819565 a63.64670465195928,63.64670465195928 0 0,0 0.3115479003092666,1.0503846410853341 l -40.98901802500347 11.7746260669877" fill="#6cff28" stroke="none" /><path d="M 120.37134235888165 94.90015583598534 l 42.56643522401343 -10.65625339929783 a64.88003126924795,64.88003126924795 0 0,0 0.26189040808022007,1.0857048170672978 l -42.743558432354476 9.921963350571126" fill="#59ff2a" stroke="none" /><path d="M 120.78858239683441 97.02765380044208 l 22.46968766978234 -3.212710201956865 a43.69820192921294,43.69820192921294 0 0,0 0.10005639917786378,0.7455363921900718 l -22.52166006801804 2.8254554677021293" fill="#ff2803" stroke="none" /><path d="M 120.87857604477298 97.74499172005257 l 38.76447404652303 -4.186789834482082 a59.98991737900556,59.98991737900556 0 0,0 0.10204820375541436,1.0276114853451224 l -38.830799375960666 3.518902818432524" fill="#a6ff21" stroke="none" /><line stroke="#e1ed5e" stroke-width="0.3" x1="184.98032266829074" x2="189.97916517819016" y1="98.17113171792111" y2="98.06355123074" /><path d="M 185.9800911702706 98.14961562048488 a86.0,86.0 0 0,1 -9.607161424134198,41.387399972396054" fill="none" id="id28" stroke="none" /><text fill="#e1ed5e" style="font-size:6.75px; font-family:Arial;" text-anchor="middle"><textPath startOffset="21.466115282336823" xlink:href="#id28">April</textPath></text><path d="M 120.99824983174949 100.27111621757518 l 35.57504448801478 0.459322637788424 a56.578009607197195,56.578009607197195 0 0,0 -0.020955248196753606,0.9737080416364662 l -35.561867177133024 -1.071620495215005" fill="#e0ff1b" stroke="none" /><path d="M 120.9764740272857 100.99374915477107 l 43.726466199803355 2.0715177760884536 a64.77550721829726,64.77550721829726 0 0,0 -0.062349970190141615,1.11330060208583 l -43.684329878725684 -2.8238900945097067" fill="#5bff2a" stroke="none" /><path d="M 120.76222939487914 103.15116336523771 l 48.74971048640478 7.398930954331519 a70.30799581989973,70.30799581989973 0 0,0 -0.19190147498906454,1.1949706679412162 l -48.615127257054425 -8.23698085196594" fill="#34ff5c" stroke="none" /><line stroke="#e1ed5e" stroke-width="0.3" x1="174.80103733775053" x2="179.2010983576182" y1="140.37084112569926" y2="142.7455964860345" /><path d="M 175.68104954172406 140.8457921977663 a86.0,86.0 0 0,1 -30.038265399797805,32.042727171017184" fill="none" id="id29" stroke="none" /><text fill="#e1ed5e" style="font-size:6.75px; font-family:Arial;" text-anchor="middle"><textPath startOffset="22.206326154141568" xlink:href="#id29">May</textPath></text><path d="M 114.0293411484842 115.62618273729858 l 29.9621535354867 33.372492791587554 a65.8492354406253,65.8492354406253 0 0,0 -0.8499494676874301,0.7499815833040768 l -29.38326171489268 -33.883297516663916" fill="#4bff2c" stroke="none" /><path d="M 113.20401910651253 116.32954008644616 l 25.766422700048736 31.865587967623934 a61.97955874921015,61.97955874921015 0 0,0 -0.8353737956499371,0.6636714660773445 l -25.214091411681448 -32.3043933477064" fill="#86ff25" stroke="none" /><path d="M 112.04921762599082 117.19931262002967 l 29.12141879779591 41.56854008194691 a71.75431565237628,71.75431565237628 0 0,0 -1.0176918531265124,0.699977736390175 l -28.401570060046517 -42.06365860770217" fill="#37ff74" stroke="none" /><path d="M 111.45004920935366 117.60387380957326 l 26.528882373573353 40.786820132780846 a69.65538301703839,69.65538301703839 0 0,0 -1.010726799556323,0.6450936643602416 l -25.822873771970098 -41.2374282259649" fill="#33ff51" stroke="none" /><line stroke="#e1ed5e" stroke-width="0.3" x1="143.8653032363475" x2="146.44561519142675" y1="172.8068346515853" y2="177.08958963109032" /><path d="M 144.38136562736335 173.6633856474863 a86.0,86.0 0 0,1 -40.68145358897372,12.25698825130547" fill="none" id="id30" stroke="none" /><text fill="#e1ed5e" style="font-size:6.75px; font-family:Arial;" text-anchor="middle"><textPath startOffset="21.466115282336833" xlink:href="#id30">June</textPath></text><path d="M 110.5260780823613 118.17145234162733 l 21.908727581738326 37.8216270107647 a64.70889856759408,64.70889856759408 0 0,0 -0.9686343836140157,0.5500158828205736 l -21.25444443120311 -38.1931460593799" fill="#5cff2a" stroke="none" /><path d="M 109.89434966115114 118.52300852407294 l 21.55020240440624 40.34369074297223 a66.73865549440058,66.73865549440058 0 0,0 -1.0179523099050753,0.5325445371450035 l -20.852559191974667 -40.70866469906195" fill="#3eff2d" stroke="none" /><path d="M 109.2508944713604 118.85261126421891 l 22.260903922185783 45.366009669049745 a71.53338180574403,71.53338180574403 0 0,0 -1.110086806933077,0.5329091271920475 l -21.476704447252473 -45.742473072741355" fill="#36ff71" stroke="none" /><path d="M 108.59647513512805 119.15986991738527 l 21.214477987977453 47.282942395066534 a72.82403610138408,72.82403610138408 0 0,0 -1.1481206067212242,0.5033023338321498 l -20.397436706598477 -47.64110928219314" fill="#39ff86" stroke="none" /><path d="M 107.59598834532513 119.57807347666477 l 19.33141171579316 49.82522112640988 a74.44395325217948,74.44395325217948 0 0,0 -1.1986532132805654,0.45322808058434827 l -18.47088828175232 -50.15059745710086" fill="#3cffa0" stroke="none" /><path d="M 106.91757812671514 119.82793768551818 l 20.752734380145416 59.48381305655456 a84.0,84.0 0 0,0 -1.3693210682510921,0.46454805240750785 l -19.725743578957097 -59.83222409586019" fill="#4dd2ff" stroke="none" /><path d="M 106.2309692047433 120.05430185196036 l 14.851052651787082 47.797940081548504 a71.0519414299331,71.0519414299331 0 0,0 -1.1710883354050357,0.352839308873437 l -14.0260893419418 -48.04649475952766" fill="#35ff69" stroke="none" /><path d="M 105.53697534728816 120.25689768951611 l 14.011558228839199 51.26096536646221 a74.14141825640138,74.14141825640138 0 0,0 -1.2339587744820153,0.325899727617478 l -13.127109011545686 -51.494556443383274" fill="#3bff9c" stroke="none" /><path d="M 104.83641907484287 120.43548508189849 l 13.081334997155032 55.27300716684972 a77.79988245211793,77.79988245211793 0 0,0 -1.3058519497131131,0.2972076522657663 l -12.127962898049057 -55.489991552693176" fill="#42ffd4" stroke="none" /><path d="M 104.13013068566511 120.58985236759428 l 9.831705277782213 49.013790506397456 a70.99013991252863,70.99013991252863 0 0,0 -1.2001808911920733,0.23001752425155628 l -8.986556772018435 -49.175765228997484" fill="#35ff68" stroke="none" /><path d="M 103.41894727170886 120.7198165907248 l 8.054085099456104 48.810102293098645 a70.4701361697341,70.4701361697341 0 0,0 -1.1985431107834896,0.18718778462036728 l -7.212706125064098 -48.94150838506612" fill="#34ff5f" stroke="none" /><path d="M 101.98527174616119 120.90594882070398 l 4.801402015531621 50.56127202657474 a71.78873586003141,71.78873586003141 0 0,0 -1.2311962448638973,0.10623279261047644 l -3.930361452926182 -50.63642907146388" fill="#37ff75" stroke="none" /><path d="M 101.26447882468166 120.96189622390904 l 3.1221803099651453 51.75794040386401 a72.85202411418355,72.85202411418355 0 0,0 -1.2524023783547222,0.06473489751120916 l -2.2307898631969434 -51.80401510813742" fill="#39ff87" stroke="none" /><line stroke="#e1ed5e" stroke-width="0.3" x1="102.19456741930631" x2="102.32365962044197" y1="184.97166512339345" y2="189.96999836594603" /><path d="M 102.22038585953345 185.97133177190398 a86.0,86.0 0 0,1 -42.740103519485714,-10.115201625700543" fill="none" id="id31" stroke="none" /><text fill="#e1ed5e" style="font-size:6.75px; font-family:Arial;" text-anchor="middle"><textPath startOffset="22.20632615414155" xlink:href="#id31">July</textPath></text><path d="M 100.54218724476979 120.99299961872073 l 1.3845855144495671 53.60989853102741 a74.62777542984492,74.62777542984492 0 0,0 -1.2844517282849277,0.022113001343713357 l -0.4615740962719715 -53.62578900965028" fill="#3cffa3" stroke="none" /><path d="M 99.81925306533755 120.99922214144158 l -0.5020600199654854 58.329453317042606 a79.33161397157377,79.33161397157377 0 0,0 -1.3654115788190848,-0.023506798591383465 l 1.5060312886772382 -58.31216904117206" fill="#44ffeb" stroke="none" /><path d="M 98.73552117531835 120.96189622390904 l -3.6355950786519187 60.26907312587277 a81.37862806513343,81.37862806513343 0 0,0 -1.3975316074765713,-0.09638196195111266 l 4.67248944690742 -60.19756281940538" fill="#48f6ff" stroke="none" /><path d="M 97.65516085044442 120.86867818915974 l -6.878147361017947 61.21436681143207 a82.59957479759446,82.59957479759446 0 0,0 -1.4115582029748697,-0.17092004049240422 l 7.930832987044206 -61.08690124221432" fill="#4ae5ff" stroke="none" /><path d="M 96.93821686468263 120.77559828337769 l -7.303897032775012 49.560280382287544 a71.09559165671502,71.09559165671502 0 0,0 -1.2091807426339092,-0.18884916394145468 l 8.155913639017438 -49.42721291099898" fill="#35ff69" stroke="none" /><path d="M 95.86986931433489 120.58985236759428 l -9.720414771662545 48.458976321250304 a70.42427388881553,70.42427388881553 0 0,0 -1.1865099725951609,-0.2486447009776991 l 10.553116205687093 -48.284475639546066" fill="#34ff5e" stroke="none" /><path d="M 95.16358092515715 120.4354850818985 l -11.506996925283268 48.62090326854458 a70.96401918268432,70.96401918268432 0 0,0 -1.1862707540714823,-0.2915564895267164 l 12.34222096409796 -48.415625520703834" fill="#35ff67" stroke="none" /><path d="M 94.46302465271185 120.25689768951611 l -13.40267512267184 49.033380446376256 a71.83211680072904,71.83211680072904 0 0,0 -1.1899121220972602,-0.33628105141561637 l 14.244718412873715 -48.795410601622116" fill="#37ff76" stroke="none" /><path d="M 92.7421414339146 119.70592522655815 l -15.481022169167298 42.0327652459121 a65.79302849350785,65.79302849350785 0 0,0 -1.0593610571439154,-0.40055970588948187 l 16.2022534470715 -41.76005728991599" fill="#4cff2c" stroke="none" /><path d="M 92.06813273071674 119.44442032107085 l -16.27424889672032 39.895188007369164 a64.08685650283314,64.08685650283314 0 0,0 -1.0178474149897896,-0.42546030201560164 l 16.95856777120757 -39.60914266233359" fill="#65ff29" stroke="none" /><path d="M 91.40352486487194 119.15986991738527 l -20.095706658789236 44.789418852265364 a70.09103245237128,70.09103245237128 0 0,0 -1.096530827157542,-0.5033635213072182 l 20.8637054817142 -44.436868260624074" fill="#34ff58" stroke="none" /><path d="M 90.7491055286396 118.85261126421891 l -22.196319143039002 45.23439085763546 a71.38677107893474,71.38677107893474 0 0,0 -1.0984931484430083,-0.5508072689730089 l 22.97166619916477 -44.84561574775315" fill="#36ff6e" stroke="none" /><path d="M 90.10565033884886 118.52300852407294 l -17.696271855063905 33.128826617344835 a58.558982821828685,58.558982821828685 0 0,0 -0.885013586086881,-0.48257997146460674 l 18.263908253019427 -32.81930599412046" fill="#beff1f" stroke="none" /><line stroke="#e1ed5e" stroke-width="0.3" x1="58.666819895761336" x2="56.23545636021788" y1="174.27360380694188" y2="178.64263932499728" /><path d="M 58.180547188652646 175.14741091055294 a86.0,86.0 0 0,1 -31.652253787137756,-30.449443065178592" fill="none" id="id32" stroke="none" /><text fill="#e1ed5e" style="font-size:6.75px; font-family:Arial;" text-anchor="middle"><textPath startOffset="22.20632615414155" xlink:href="#id32">August</textPath></text><path d="M 89.4739219176387 118.17145234162733 l -18.72712183685196 32.32913524786104 a58.361451767387045,58.361451767387045 0 0,0 -0.8649504230208697,-0.5110279559046003 l 19.28084013090121 -32.00198871966269" fill="#c1ff1e" stroke="none" /><path d="M 87.95078237400918 117.19931262002967 l -20.4626099823804 29.20876998267013 a56.663295573902666,56.663295573902666 0 0,0 -0.7940218762581275,-0.5665135261218118 l 20.962359186487415 -28.8522121947041" fill="#deff1b" stroke="none" /><path d="M 87.36589467227662 116.77436683061367 l -12.526618894224006 16.631656538269002 a41.82133953731306,41.82133953731306 0 0,0 -0.5713019451987911,-0.4380499700137404 l 12.811049567916285 -16.413567226427894" fill="#ff0000" stroke="none" /><path d="M 86.51685102203217 116.09983520530335 l -31.663497283767732 37.80845922011488 a70.31588637384769,70.31588637384769 0 0,0 -0.9212537088824012,-0.7851123968819729 l 32.30961646922719 -37.25782243300995" fill="#34ff5c" stroke="none" /><path d="M 85.97065885151581 115.62618273729859 l -37.300971398511926 41.54662640125991 a76.83443948494936,76.83443948494936 0 0,0 -0.9765307864283179,-0.892037720080793 l 38.0106017344071 -40.89839591459254" fill="#40ffc6" stroke="none" /><path d="M 85.18274418774928 114.88116024355367 l -38.88406754538157 39.051768248853136 a76.10908556885997,76.10908556885997 0 0,0 -0.920410276126791,-0.9323707503346781 l 39.55051844656389 -38.37665700453779" fill="#3fffbb" stroke="none" /><path d="M 84.4343377721795 114.09645910891817 l -39.08824713203661 35.39880727664958 a73.73487101022005,73.73487101022005 0 0,0 -0.8438820818870487,-0.9481104649326088 l 39.691788063571984 -34.7207226419761" fill="#3aff95" stroke="none" /><path d="M 83.28015986056508 112.70617746262583 l -37.45192443811374 28.461444263761337 a68.03935005606874,68.03935005606874 0 0,0 -0.700606803381619,-0.9385773046571789 l 37.93629250819044 -27.81255407959485" fill="#30ff34" stroke="none" /><path d="M 82.6465618267979 111.8261652097733 l -34.390135431021285 23.436475189209727 a62.616700785362944,62.616700785362944 0 0,0 -0.5993220193944492,-0.8959051019152834 l 34.78846055582647 -22.841033173088622" fill="#7cff26" stroke="none" /><path d="M 82.24976979558568 111.22182372390057 l -41.9878063251651 26.54499438644474 a70.67507027650748,70.67507027650748 0 0,0 -0.6412428562679473,-1.0338876604743272 l 42.438513821101004 -25.818310394605145" fill="#35ff62" stroke="none" /><line stroke="#e1ed5e" stroke-width="0.3" x1="26.63291911575756" x2="22.317208475507996" y1="142.92168965132927" y2="145.44649492493687" /><path d="M 25.769776987707644 143.4266507060508 a86.0,86.0 0 0,1 -11.730757126820373,-40.83630448921669" fill="none" id="id33" stroke="none" /><text fill="#e1ed5e" style="font-size:6.75px; font-family:Arial;" text-anchor="middle"><textPath startOffset="21.46611528233685" xlink:href="#id33">September</textPath></text><path d="M 81.69416730710424 110.29060199501025 l -47.5299530990385 26.718906393890883 a75.5251905130308,75.5251905130308 0 0,0 -0.6273035669590995,-1.1387381866688915 l 47.98283307544912 -25.896797688824172" fill="#3effb1" stroke="none" /><path d="M 81.18737489456691 109.33194174019688 l -41.5353806198757 20.603491002945788 a67.36476770939777,67.36476770939777 0 0,0 -0.5063480572302084,-1.0432269732347295 l 41.88388193372063 -19.885475073745773" fill="#35ff2f" stroke="none" /><path d="M 80.45479744820244 107.68017299344265 l -35.34130429076194 13.887158756611898 a58.97184440218266,58.97184440218266 0 0,0 -0.3631141344820818,-0.9479764233599443 l 35.57511270483753 -13.276758766418796" fill="#b7ff1f" stroke="none" /><path d="M 80.20201598880116 107.00284435728193 l -40.61430550987458 14.365889981720782 a64.08016489077467,64.08016489077467 0 0,0 -0.3588769021821388,-1.0430642642955106 l 40.855573242999945 -13.664653014335975" fill="#65ff29" stroke="none" /><path d="M 79.76711848015287 105.62410040840567 l -44.385045676162186 12.337637289554706 a67.0678800637018,67.0678800637018 0 0,0 -0.29960794497405463,-1.1149526201397055 l 44.59084169747801 -11.571793736239464" fill="#39ff2e" stroke="none" /><path d="M 79.29508885075956 103.50808413554451 l -39.207344705847206 6.642997063257302 a60.76613243534717,60.76613243534717 0 0,0 -0.165857528830646,-1.0327949903518223 l 39.31588398903914 -5.967122843212265" fill="#99ff23" stroke="none" /><path d="M 79.10278846688536 102.07522291339032 l -42.25333094813513 4.1960182300726805 a63.461165141806184,63.461165141806184 0 0,0 -0.09859267302279144,-1.0879619312115816 l 42.319298217435 -3.468074910312533" fill="#6fff28" stroke="none" /><path d="M 79.04373962182676 101.35467743843564 l -45.95710468613789 2.9708092823173273 a67.05302573039626,67.05302573039626 0 0,0 -0.06454220638302585,-1.1524444519708414 l 46.00143324340844 -2.1792931140110485" fill="#39ff2e" stroke="none" /><path d="M 79.0095281055655 100.63252640178507 l -47.07494523774165 1.4185553271602802 a68.09631374484196,68.09631374484196 0 0,0 -0.025221374270926,-1.1719381568826912 l 47.09238867469758 -0.60802735448746" fill="#30ff35" stroke="none" /><line stroke="#e1ed5e" stroke-width="0.3" x1="15.007084014347285" x2="10.007500721073583" y1="101.09737516637583" y2="101.16192664675087" /><path d="M 14.007167355692545 101.11028546245083 a86.0,86.0 0 0,1 10.666146001902526,-42.60595125391555" fill="none" id="id34" stroke="none" /><text fill="#e1ed5e" style="font-size:6.75px; font-family:Arial;" text-anchor="middle"><textPath startOffset="22.20632615414155" xlink:href="#id34">October</textPath></text><path d="M 79.00019446554 99.90962569577889 l -45.91619742727164 -0.19760394391080602 a66.91662262731043,66.91662262731043 0 0,0 0.014871400071817727,-1.151806324420139 l 45.905993020082114 0.987946526391417" fill="#3bff2e" stroke="none" /><path d="M 79.03285615573316 98.82574320788736 l -41.62442532104279 -2.3311598620231218 a62.68965206870136,62.68965206870136 0 0,0 0.0696136017324325,-1.0768916070912589 l 41.57813112830595 3.0473105333673924" fill="#7bff26" stroke="none" /><path d="M 79.12142395522702 97.74499172005258 l -51.47542337839098 -5.559646677203888 a72.77479003491896,72.77479003491896 0 0,0 0.14523646479054234,-1.244297335911005 l 51.372096560596844 6.444887751439755" fill="#39ff85" stroke="none" /><path d="M 79.21141760316559 97.0276538004421 l -50.115668765284504 -7.165525515365548 a71.62533962061951,71.62533962061951 0 0,0 0.18501202642033587,-1.21899809312511 l 49.98490084542487 8.02712272088275" fill="#36ff72" stroke="none" /><path d="M 79.32604984820605 96.31383870115002 l -49.703993852648345 -8.862212455417549 a71.48787789667003,71.48787789667003 0 0,0 0.22642687845320053,-1.2095814386840806 l 49.54408125028528 9.7164719715642" fill="#36ff70" stroke="none" /><path d="M 79.62865764111835 94.90015583598534 l -53.03850578282378 -13.277873859238433 a75.67526890557082,75.67526890557082 0 0,0 0.32721866682508105,-1.260907004171912 l 52.802090784128396 14.188877288959208" fill="#3effb4" stroke="none" /><path d="M 79.81627453868168 94.20196356495316 l -50.69986937380877 -14.564193832542287 a73.75028432637245,73.75028432637245 0 0,0 0.36100449119457123,-1.2171276793622856 l 50.44165898550249 15.434750898651112" fill="#3aff95" stroke="none" /><path d="M 80.14247586403 93.16781622104843 l -46.79053122676364 -16.098759657401047 a70.48256132204058,70.48256132204058 0 0,0 0.4045931249526509,-1.1438392473373034 l 46.506485021001176 16.901796531164962" fill="#34ff5f" stroke="none" /><path d="M 80.38941819471856 92.48833698450439 l -46.327736366233324 -17.745436994640556 a70.6100765061895,70.6100765061895 0 0,0 0.44452893130788174,-1.1312776430901779 l 46.015413885043756 18.5402636426265" fill="#35ff61" stroke="none" /><path d="M 80.65960295795067 91.81776055985345 l -48.146529217097395 -20.369097356677592 a73.27799157177543,73.27799157177543 0 0,0 0.5014632453778115,-1.157446308920665 l 47.78877526187691 21.194842810184856" fill="#39ff8e" stroke="none" /><path d="M 80.95270993114464 91.15688171328213 l -49.276760294766696 -22.87780668523475 a75.32856655457483,75.32856655457483 0 0,0 0.5561465244730053,-1.1713864155868308 l 48.87565557645194 23.72263551646211" fill="#3dffae" stroke="none" /><path d="M 81.6062741919709 89.86733742301443 l -46.832711333642145 -25.79901790761829 a74.46860925681406,74.46860925681406 0 0,0 0.6281688139725976,-1.1174422270973892 l 46.38168487837712 26.601343644650466" fill="#3cffa1" stroke="none" /><line stroke="#e1ed5e" stroke-width="0.3" x1="26.266209847984243" x2="21.928928074336255" y1="57.71137044288968" y2="55.22380399835378" /><path d="M 25.398753493254645 57.2138571539825 a86.0,86.0 0 0,1 29.58750427330803,-30.4925239686951" fill="none" id="id35" stroke="none" /><text fill="#e1ed5e" style="font-size:6.75px; font-family:Arial;" text-anchor="middle"><textPath startOffset="21.46611528233685" xlink:href="#id35">November</textPath></text><path d="M 81.96595687620814 89.24020034530311 l -42.37999940628966 -25.28552803426871 a70.3499977472026,70.3499977472026 0 0,0 0.629412055585695,-1.0345879266259939 l 41.93847155241775 26.01128373410178" fill="#34ff5d" stroke="none" /><path d="M 82.7489923806493 88.02491185347247 l -41.869434565956595 -29.064399056329897 a71.96850834955356,71.96850834955356 0 0,0 0.7151866411471928,-1.0115807845447045 l 41.36293530500552 29.780806341206386" fill="#37ff78" stroke="none" /><path d="M 83.6137871275137 86.86637796730984 l -19.90698961290584 -15.955540149462495 a46.51210490942389,46.51210490942389 0 0,0 0.5060993385002088,-0.6204179471418699 l 19.629391782329236 16.295842266212446" fill="#ff6209" stroke="none" /><path d="M 84.31358615837235 86.03803664274999 l -40.66208714767031 -36.191992415659215 a75.43588564742811,75.43588564742811 0 0,0 0.8716665418147261,-0.9625159666228983 l 40.033076965239545 36.88656116955167" fill="#3dffb0" stroke="none" /><path d="M 84.80347519578584 85.50635884689758 l -23.440307876343716 -22.35612518355207 a53.392041716453015,53.392041716453015 0 0,0 0.6400326158992973,-0.6596098711394985 l 23.052010996741306 22.75629925024169" fill="#ffe615" stroke="none" /><path d="M 85.57189188830299 84.74124197986013 l -37.486363904269545 -39.644515513883064 a75.56111334177335,75.56111334177335 0 0,0 0.9527612906945189,-0.8854877840240173 l 36.79839472978017 40.283907883981726" fill="#3effb2" stroke="none" /><path d="M 86.10567301691215 84.25364557470407 l -33.993561614629314 -38.524692128926006 a72.37814841813719,72.37814841813719 0 0,0 0.9412819607360707,-0.8162704408038584 l 33.325385855246466 39.10412756314954" fill="#38ff7f" stroke="none" /><path d="M 86.65592168130627 83.78471172551755 l -32.69709874240038 -39.73244679660581 a72.4564630985787,72.4564630985787 0 0,0 0.9698697870974835,-0.7842339179101437 l 32.00832555673839 40.28938681178009" fill="#38ff80" stroke="none" /><path d="M 87.80319425747018 82.90503203632743 l -33.657671828318286 -47.1743859648914 a78.95050961007429,78.95050961007429 0 0,0 1.1130851147401892,-0.7797872554590677 l 32.84065557399444 47.746758063114406" fill="#44ffe5" stroke="none" /><path d="M 88.39885842347998 82.49532879139004 l -30.03881851764176 -45.32481895666623 a75.37526856384608,75.37526856384608 0 0,0 1.0876758007242964,-0.7074545964618115 l 29.254175691133174 45.83517247728757" fill="#3dffaf" stroke="none" /><line stroke="#e1ed5e" stroke-width="0.3" x1="56.76296977257108" x2="54.21961505331056" y1="26.818313649435495" y2="22.513508569990535" /><path d="M 56.25429882871898 25.957352633546506 a86.0,86.0 0 0,1 42.26535254187918,-11.944610805530505" fill="none" id="id36" stroke="none" /><text fill="#e1ed5e" style="font-size:6.75px; font-family:Arial;" text-anchor="middle"><textPath startOffset="22.20632615414155" xlink:href="#id36">December</textPath></text><path d="M 89.63071344664047 81.73862282372117 l -25.117903734942765 -44.23520476754915 a71.86907143702207,71.86907143702207 0 0,0 1.0810337337007419,-0.6015941023940771 l 24.352745912169976 44.66101426750341" fill="#37ff76" stroke="none" /><path d="M 90.58718382345135 81.22770947309562 l -25.242708412956866 -50.34236801463912 a77.31650153678692,77.31650153678692 0 0,0 1.1948298229961904,-0.5862978050552776 l 24.372407322950252 50.76942097982923" fill="#41ffcd" stroke="none" /><path d="M 91.56875222667455 80.76684994638697 l -18.25844556215783 -41.65070612130749 a66.4769409123987,66.4769409123987 0 0,0 1.051969866552574,-0.45039859679076477 l 17.53879193781495 41.95882424606105" fill="#42ff2d" stroke="none" /><path d="M 92.23578459929587 80.48803036053334 l -15.816178456223113 -39.74706753012349 a63.77827577408062,63.77827577408062 0 0,0 1.0235406020551616,-0.3971178519400727 l 15.129654689168275 40.01342808595411" fill="#6aff28" stroke="none" /><path d="M 93.59665428221793 80.00007090966166 l -11.19774271215724 -34.97453832503184 a57.72339544346072,57.72339544346072 0 0,0 0.9489028782802624,-0.2948287433041962 l 10.594054461166248 35.16210720321856" fill="#ccff1d" stroke="none" /><path d="M 94.63758080256005 79.69619591428918 l -11.008587500985648 -41.68197144809669 a64.11120205430144,64.11120205430144 0 0,0 1.069408772159128,-0.2726161074029401 l 10.28946984014152 41.865290551668494" fill="#65ff29" stroke="none" /><path d="M 95.33964822691252 79.52364482259891 l -5.066378906281225 -22.260331193749956 a43.82959789565836,43.82959789565836 0 0,0 0.7370829235370132,-0.1610977781633602 l 4.682453258590691 22.344242470009185" fill="#ff2b04" stroke="none" /><path d="M 97.47563105711357 79.15227682838746 l -4.559565205902777 -37.65557069755722 a58.93061612240974,58.93061612240974 0 0,0 1.008087594945553,-0.11327038719863074 l 3.9107109074475055 37.72847703822645" fill="#b8ff1f" stroke="none" /><path d="M 97.83486435360386 79.11191278185805 l -4.216821070226588 -40.68166650195911 a61.899627985043196,61.899627985043196 0 0,0 1.0607676549656693,-0.10073267052865444 l 3.5159282881706813 40.74822471700294" fill="#87ff25" stroke="none" /><path d="M 98.55514903715128 79.0497635885617 l -2.7247765362195655 -39.50906638120641 a60.60291319444704,60.60291319444704 0 0,0 1.0413252872111647,-0.06281558506058109 l 2.044289200168778 39.5501152356473" fill="#9cff22" stroke="none" /><path d="M 99.63851952072746 79.00311137660856 l -0.7133203901584405 -41.43379696489363 a62.43993673869501,62.43993673869501 0 0,0 1.074800869430966,-0.009251150409936725 l 1.014985717678233e-14 41.43993673869501" fill="#7fff26" stroke="none" /></svg>